<svg width="241" height="98" viewBox="0 0 241 98" fill="none" xmlns="http://www.w3.org/2000/svg">
<g filter="url(#filter0_i_660_75)">
<path d="M0.700012 12C0.700012 5.37258 6.0726 0 12.7 0H228.7C235.327 0 240.7 5.37258 240.7 12V86C240.7 92.6274 235.327 98 228.7 98H12.7C6.0726 98 0.700012 92.6274 0.700012 86V12Z" fill="#F4D8A0"/>
</g>
<path d="M1.05001 12C1.05001 5.56588 6.2659 0.35 12.7 0.35H228.7C235.134 0.35 240.35 5.56588 240.35 12V86C240.35 92.4341 235.134 97.65 228.7 97.65H12.7C6.2659 97.65 1.05001 92.4341 1.05001 86V12Z" stroke="#112f39" stroke-width="0.7"/>
<defs>
<filter id="filter0_i_660_75" x="0.700012" y="0" width="245" height="105" filterUnits="userSpaceOnUse" color-interpolation-filters="sRGB">
<feFlood flood-opacity="0" result="BackgroundImageFix"/>
<feBlend mode="normal" in="SourceGraphic" in2="BackgroundImageFix" result="shape"/>
<feColorMatrix in="SourceAlpha" type="matrix" values="0 0 0 0 0 0 0 0 0 0 0 0 0 0 0 0 0 0 127 0" result="hardAlpha"/>
<feOffset dx="5" dy="7"/>
<feGaussianBlur stdDeviation="9.7"/>
<feComposite in2="hardAlpha" operator="arithmetic" k2="-1" k3="1"/>
<feColorMatrix type="matrix" values="0 0 0 0 0 0 0 0 0 0 0 0 0 0 0 0 0 0 0.1 0"/>
<feBlend mode="normal" in2="shape" result="effect1_innerShadow_660_75"/>
</filter>
</defs>
</svg>
