<svg width="241" height="99" viewBox="0 0 241 99" fill="none" xmlns="http://www.w3.org/2000/svg">
<mask id="path-1-inside-1_663_156" fill="white">
<path fill-rule="evenodd" clip-rule="evenodd" d="M0.709052 12.088C0.706622 5.4606 6.07723 0.086042 12.7047 0.0836111L228.705 0.00438299C235.332 0.00195208 240.707 5.37256 240.709 12L240.713 23.2062L231.214 25.1685L240.715 27.1239L240.715 27.9909L224.719 38.5059L234.135 38.5024L233.499 39.4584L207.722 48.5121L222.159 54.4197L228.335 59.179L223.229 65.5064L235.266 64.5193L240.73 68.7289L240.736 86C240.739 92.6274 235.368 98.0019 228.741 98.0044L12.7406 98.0836C6.11318 98.086 0.738626 92.7154 0.736195 86.088L0.730453 70.4334L10.4797 68.4194L0.728979 66.4125L0.72874 65.7613L16.9748 55.082L7.55816 55.0855L8.19502 54.1295L33.9712 45.0758L19.5351 39.1682L13.3582 34.4089L18.4649 28.0815L6.42722 29.0686L0.713666 24.6663L0.709052 12.088Z"/>
</mask>
<g filter="url(#filter0_i_663_156)">
<path fill-rule="evenodd" clip-rule="evenodd" d="M0.709052 12.088C0.706622 5.4606 6.07723 0.086042 12.7047 0.0836111L228.705 0.00438299C235.332 0.00195208 240.707 5.37256 240.709 12L240.713 23.2062L231.214 25.1685L240.715 27.1239L240.715 27.9909L224.719 38.5059L234.135 38.5024L233.499 39.4584L207.722 48.5121L222.159 54.4197L228.335 59.179L223.229 65.5064L235.266 64.5193L240.73 68.7289L240.736 86C240.739 92.6274 235.368 98.0019 228.741 98.0044L12.7406 98.0836C6.11318 98.086 0.738626 92.7154 0.736195 86.088L0.730453 70.4334L10.4797 68.4194L0.728979 66.4125L0.72874 65.7613L16.9748 55.082L7.55816 55.0855L8.19502 54.1295L33.9712 45.0758L19.5351 39.1682L13.3582 34.4089L18.4649 28.0815L6.42722 29.0686L0.713666 24.6663L0.709052 12.088Z" fill="#F4D8A0"/>
</g>
<path d="M0.709052 12.088L0.0090525 12.0883L0.709052 12.088ZM240.709 12L241.409 11.9997L240.709 12ZM240.713 23.2062L240.855 23.8917L241.413 23.7763L241.413 23.2059L240.713 23.2062ZM231.214 25.1685L231.072 24.483L231.073 25.8542L231.214 25.1685ZM240.715 27.1239L241.415 27.1237L241.414 26.5533L240.856 26.4383L240.715 27.1239ZM240.715 27.9909L241.099 28.5758L241.415 28.3683L241.415 27.9906L240.715 27.9909ZM224.719 38.5059L224.334 37.9209L222.378 39.2067L224.719 39.2059L224.719 38.5059ZM234.135 38.5024L234.718 38.8905L235.443 37.8019L234.135 37.8024L234.135 38.5024ZM233.499 39.4584L233.731 40.1189L233.951 40.0413L234.081 39.8465L233.499 39.4584ZM207.722 48.5121L207.49 47.8516L205.752 48.4622L207.457 49.1599L207.722 48.5121ZM222.159 54.4197L222.586 53.8652L222.511 53.8076L222.424 53.7718L222.159 54.4197ZM228.335 59.179L228.88 59.6186L229.33 59.0615L228.763 58.6245L228.335 59.179ZM223.229 65.5064L222.684 65.0668L221.658 66.3375L223.286 66.2041L223.229 65.5064ZM235.266 64.5193L235.694 63.9648L235.479 63.7995L235.209 63.8216L235.266 64.5193ZM240.73 68.7289L241.43 68.7286L241.43 68.3845L241.157 68.1744L240.73 68.7289ZM240.736 86L240.036 86.0002L240.736 86ZM0.730453 70.4334L0.588838 69.7478L0.0302442 69.8632L0.0304534 70.4336L0.730453 70.4334ZM10.4797 68.4194L10.6213 69.1049L10.6208 67.7337L10.4797 68.4194ZM0.728979 66.4125L0.0289786 66.4128L0.0291878 66.9832L0.587866 67.0982L0.728979 66.4125ZM0.72874 65.7613L0.344233 65.1764L0.0286012 65.3839L0.0287397 65.7616L0.72874 65.7613ZM16.9748 55.082L17.3593 55.667L19.3154 54.3812L16.9746 54.382L16.9748 55.082ZM7.55816 55.0855L6.97558 54.6974L6.25045 55.786L7.55842 55.7855L7.55816 55.0855ZM8.19502 54.1295L7.96304 53.469L7.7422 53.5466L7.61244 53.7414L8.19502 54.1295ZM33.9712 45.0758L34.2031 45.7363L35.9414 45.1257L34.2363 44.428L33.9712 45.0758ZM19.5351 39.1682L19.1078 39.7227L19.1826 39.7803L19.27 39.8161L19.5351 39.1682ZM13.3582 34.4089L12.8134 33.9693L12.3638 34.5264L12.9309 34.9634L13.3582 34.4089ZM18.4649 28.0815L19.0096 28.5211L20.0353 27.2504L18.4077 27.3838L18.4649 28.0815ZM6.42722 29.0686L5.99998 29.6231L6.21451 29.7884L6.48443 29.7663L6.42722 29.0686ZM0.713666 24.6663L0.0136662 24.6666L0.0137924 25.0108L0.286427 25.2208L0.713666 24.6663ZM12.7044 -0.616389C5.69038 -0.613816 0.00647978 5.07425 0.0090525 12.0883L1.40905 12.0878C1.40676 5.84694 6.46409 0.7859 12.7049 0.783611L12.7044 -0.616389ZM228.704 -0.695617L12.7044 -0.616389L12.7049 0.783611L228.705 0.704383L228.704 -0.695617ZM241.409 11.9997C241.406 4.98571 235.718 -0.69819 228.704 -0.695617L228.705 0.704383C234.946 0.702094 240.007 5.75942 240.009 12.0002L241.409 11.9997ZM241.413 23.2059L241.409 11.9997L240.009 12.0002L240.013 23.2064L241.413 23.2059ZM231.355 25.8541L240.855 23.8917L240.572 22.5207L231.072 24.483L231.355 25.8541ZM240.856 26.4383L231.355 24.4829L231.073 25.8542L240.573 27.8095L240.856 26.4383ZM241.415 27.9906L241.415 27.1237L240.015 27.1242L240.015 27.9911L241.415 27.9906ZM225.103 39.0908L241.099 28.5758L240.33 27.4059L224.334 37.9209L225.103 39.0908ZM234.135 37.8024L224.719 37.8059L224.719 39.2059L234.136 39.2024L234.135 37.8024ZM234.081 39.8465L234.718 38.8905L233.553 38.1143L232.916 39.0704L234.081 39.8465ZM207.954 49.1725L233.731 40.1189L233.267 38.798L207.49 47.8516L207.954 49.1725ZM222.424 53.7718L207.988 47.8642L207.457 49.1599L221.893 55.0675L222.424 53.7718ZM228.763 58.6245L222.586 53.8652L221.731 54.9742L227.908 59.7335L228.763 58.6245ZM223.773 65.946L228.88 59.6186L227.791 58.7394L222.684 65.0668L223.773 65.946ZM235.209 63.8216L223.171 64.8087L223.286 66.2041L235.324 65.2169L235.209 63.8216ZM241.157 68.1744L235.694 63.9648L234.839 65.0738L240.303 69.2834L241.157 68.1744ZM241.436 85.9997L241.43 68.7286L240.03 68.7291L240.036 86.0002L241.436 85.9997ZM228.741 98.7044C235.755 98.7018 241.439 93.0137 241.436 85.9997L240.036 86.0002C240.038 92.2411 234.981 97.3021 228.74 97.3044L228.741 98.7044ZM12.7409 98.7836L228.741 98.7044L228.74 97.3044L12.7403 97.3836L12.7409 98.7836ZM0.0361955 86.0883C0.0387682 93.1023 5.72684 98.7862 12.7409 98.7836L12.7403 97.3836C6.49953 97.3859 1.43848 92.3286 1.4362 86.0878L0.0361955 86.0883ZM0.0304534 70.4336L0.0361955 86.0883L1.4362 86.0878L1.43045 70.4331L0.0304534 70.4336ZM10.3381 67.7338L0.588838 69.7478L0.872068 71.1189L10.6213 69.1049L10.3381 67.7338ZM0.587866 67.0982L10.3386 69.105L10.6208 67.7337L0.870091 65.7269L0.587866 67.0982ZM0.0287397 65.7616L0.0289786 66.4128L1.42898 66.4123L1.42874 65.7611L0.0287397 65.7616ZM16.5903 54.4971L0.344233 65.1764L1.11325 66.3463L17.3593 55.667L16.5903 54.4971ZM7.55842 55.7855L16.9751 55.782L16.9746 54.382L7.5579 54.3855L7.55842 55.7855ZM7.61244 53.7414L6.97558 54.6974L8.14074 55.4736L8.77759 54.5175L7.61244 53.7414ZM33.7392 44.4154L7.96304 53.469L8.42699 54.7899L34.2031 45.7363L33.7392 44.4154ZM19.27 39.8161L33.706 45.7237L34.2363 44.428L19.8002 38.5204L19.27 39.8161ZM12.9309 34.9634L19.1078 39.7227L19.9623 38.6137L13.7854 33.8544L12.9309 34.9634ZM17.9202 27.6419L12.8134 33.9693L13.9029 34.8485L19.0096 28.5211L17.9202 27.6419ZM6.48443 29.7663L18.5221 28.7792L18.4077 27.3838L6.37001 28.371L6.48443 29.7663ZM0.286427 25.2208L5.99998 29.6231L6.85446 28.5141L1.14091 24.1118L0.286427 25.2208ZM0.0090525 12.0883L0.0136662 24.6666L1.41367 24.6661L1.40905 12.0878L0.0090525 12.0883Z" fill="black" mask="url(#path-1-inside-1_663_156)"/>
<defs>
<filter id="filter0_i_663_156" x="0.709053" y="0.00439453" width="245.027" height="105.079" filterUnits="userSpaceOnUse" color-interpolation-filters="sRGB">
<feFlood flood-opacity="0" result="BackgroundImageFix"/>
<feBlend mode="normal" in="SourceGraphic" in2="BackgroundImageFix" result="shape"/>
<feColorMatrix in="SourceAlpha" type="matrix" values="0 0 0 0 0 0 0 0 0 0 0 0 0 0 0 0 0 0 127 0" result="hardAlpha"/>
<feMorphology radius="1" operator="erode" in="SourceAlpha" result="effect1_innerShadow_663_156"/>
<feOffset dx="5" dy="7"/>
<feGaussianBlur stdDeviation="9.7"/>
<feComposite in2="hardAlpha" operator="arithmetic" k2="-1" k3="1"/>
<feColorMatrix type="matrix" values="0 0 0 0 0 0 0 0 0 0 0 0 0 0 0 0 0 0 0.1 0"/>
<feBlend mode="normal" in2="shape" result="effect1_innerShadow_663_156"/>
</filter>
</defs>
</svg>
