<?xml version="1.0" encoding="UTF-8"?>
<svg id="Layer_1" xmlns="http://www.w3.org/2000/svg" version="1.1" viewBox="0 0 476.93 452.06">
  <!-- Generator: Adobe Illustrator 29.3.1, SVG Export Plug-In . SVG Version: 2.1.0 Build 151)  -->
  <path d="M77.5,64.7l17.03,11.09c25.69-26.09,59.13-44.97,94.35-53.87,66.75-16.86,138.72,4.24,186.73,53.96l17.23-11.3c1.08-1.27-1.45-2.79.71-4.85.89-.85,12.57-8.32,13.47-8.55,3.71-.98,4.05,1,6.04,1.31.99.15,1.87-.39,2.86-.38,7.32.07,14.13,10.69,16.64,16.88,1.62,3.98,3.33,10.4-.25,13.65l-31.76,23.26c12.52,19.27,22.41,39.71,28.85,61.97,18.13,62.61,5.72,130.18-32.13,182.27-.27,1.12,2.58,4.58,3.28,6.17,2.53,5.74.95,9.74-2.79,14.4-6.61,8.25-17.07,9.62-26.71,10.63-26.73,24.34-58.62,42.72-93.82,50.66-64.59,14.58-122.88-4.48-173.05-46.05-1.03-.86-3.75-3.8-4.65-4.18-1.73-.72-7.63-.3-10.23-.7-7.17-1.11-17.6-5.26-21.84-11.53-3.96-5.85-4-9.91-.41-15.98.83-1.41,3.33-3.75,3.65-4.46.21-.46.22-.71.12-1.2-.21-1.05-4.25-6.24-5.19-7.75-33.77-54.37-42.86-117.55-22.87-179.27,6.33-19.54,15.64-37.42,26.56-54.61-10.01-8.59-21.16-15.72-31.56-23.8-4.6-5.12.75-15.41,3.87-20.27,2.61-4.07,7.16-9.89,12.36-10.09,1.02-.04,1.92.47,2.8.33,2.28-.38,3.03-2.7,6.53-1.7,1.75.5,11.12,6.97,12.83,8.47,3.19,2.77.47,3.97,1.36,5.5Z" fill="#120d05"/>
  <path d="M296.44,87.11c.38-.03.76-.04,1.13,0,2.25.24,15.14,7.59,16.48,9.43.22.31.41.64.58.99.68,1.16,1.17,1.48,2.49,1.89l1.15.71.83-.43c3.17,1.93,6.07,4.24,8.7,6.93l-.07.94c-6.67,4.71-13.33,9.45-20.01,14.14-3.23,1.1-6.65,1.49-10.26,1.17,6.17-.43,8.26.17,6.26,1.81-16.41,11.52-33.1,22.68-49.48,34.24l-3.15,1.51c-10.77-.01-21.57-.02-32.42-.02l-1.89-.75c-12.53-9.01-25.23-17.89-37.84-26.8-1.07-.92-1.17-1.54-.29-1.86,5.07-.05,10.12-.02,15.14.11l.43.64.82.45c4.82,11.34,20.42,19.4,31.99,21.32,14.74,2.45,33.77-3.1,43.29-15.11,8.15-10.27,1.51-13.67-8.52-11.91-1.9-.62-2.59-7.25-2.48-9.24.22-4.21.73-8.34,1.47-12.49.65-5.81.77-6.85-5.1-7.74-13.36-2.01-23.92-2.49-37.41-.47-3.07.46-5.6,1.12-8.04,2.82-.52.57-.59,1.01-.23,1.31l.23,3.52.51.85c.52,3.63.54,7.46.41,11.16-.08,2.39-.34,8.27-1.21,10.24-.36.82-.51,1.05-1.42,1.01-3.1-1.06-6.64-2.12-9.94-1.69-2.33.3-2.92,1.53-3.54,3.66l-.82.07c.16,2.01-2.04,2.46-2.36.74-.08.29-.21.73-.43.74-3.65.22-8.48.21-12.14,0l-.53-.74c-.32,1.75-2.33.68-3.46,0-2.51-1.77-5.12-3.43-7.64-5.21-1.34-1.16-1.49-1.91-.47-2.27-1.39.23-2.62-.2-3.9-.71-2.03-1.47-4.45-2.58-6.18-4.47-1.52-.92-1.79-1.67-.81-2.25l5.52-.37c-2.44-.15-4.83-.03-7.17.49l-2.27-1.22c-2.59-1.13-7.6-4.9-10.19-6.7-.92-.65-1.21-1.24-.88-1.78,8.5-7.15,18.3-13.91,28.55-18.49.31-.14.67-.18,1.03-.22s.76-.02,1.14.01l3.28-.74c39.38.25,78.76.25,118.14,0l3,.74Z" fill="#e0c78f"/>
  <path d="M400.85,120.6c.89.8,1.76,1.65,2.4,2.67,3.88,6.16,7.27,13.56,10.22,20.27,27.31,62.02,22.18,132.75-13.39,190.09-2.5,3.43-4.92,7.12-6.87,10.65-1.09-3.15-2.35-6.22-3.45-9.31-3.5-9.79-6.22-19.89-9.28-29.77,4.23-5.98,10.62-11.97,18.36-12.32l-3.01-.47c-.82-.57-1.17-1.02-.41-1.86,6.13-6.65,10.86-14.67,13.83-23.17l1.91-2.65c-1.33-.22-1.52-1.26-.54-3.12,1.18-7.61.29-15.27-3.27-22.03-.34-1.1.04-1.6,1.16-1.57,6.45,1.41,13.79-4.03,12.7-11.11-1.5,15.75-18.03,10.86-25.9,2.86.87,1.94,2.35,3.5,4.2,4.47,10.57,3.79,12.29,16.58,10.3,26.79-.55,2.84-2.28,9.32-3.84,11.53-.25.36-.71.51-1.11.63-.91,2.26-1.25,1.14-.73-.74l-.56-1.06c1.29-6.67,1.31-13.81-3.67-18.94l-.14-1.21c-2.1-2.46-3.44-2.46-4,0l.55,1c-.59,3.28.06,6.61,1.32,9.64,4.77,9.1,5.76,16.21-.44,25.2-1.71,2.48-9.39,10.73-11.9,11.4-.98.26-1.12-.18-1.28-1.18.91-3.25,1.48-6.55,1.72-9.92-.72,5.39-1.72,11.68-5.98,15.2-2.31-7.35-5.49-14.22-9.1-21.21,3.67-7.46,5.97-15.78,7.78-24.01l.95-.93c-.5-1.03-.26-2.15.73-3.35-.38-3.96.27-8.65,1.82-12.28.26-.97.09-1.7-.49-2.21.8-2.14,1.21-4.5,1.22-7.09.42-2.74.56-6.24-.43-8.96.42-.88.56-1.8.44-2.77l-.73-10.98c-.19-.87-.53-1.65-1.03-2.34.79-1.71.2-3.94-.9-5.49.36-1,.4-2.11.11-3.34-1.67-2.68-2.57-6.54-2.18-9.68-1.02-.81-1.2-1.29-.54-1.44l-.19-1.54c-1.14-.11-1.63-1.88-.73-2.61-1.09-.99-1.38-1.9-.87-2.71l-.95-2.87-1.07-1.14c-1.09-3.66-2.57-7.19-4.11-10.67l.09-1.59c-1.48-.97-2.09-2.21-1.82-3.72-1.99-1.51-3.9-4.9-4-7.44l-1.03-.37c-1.05-2.24-2.29-4.35-3.72-6.35l.02-1.1c1.83-1.53,3.83-3.45,5.46-5.21,2.66,2.74,4.77,6.61,5.46,10.42.38.33.75.68,1.08,1.06s.65.75.85,1.18c16.58,34.09,22.53,72.14,13.7,109.4-2.44,10.29-5.91,18.84-9.84,28.5-.04.11.13.55.16.54,1.04-.48,7.54-19.05,8.19-21.63,5.74-22.67,7.98-42.11,4.54-65.69-2.87-19.72-8.85-34.77-16.9-52.66-.41-.92-.56-1.94-.69-2.94-.48-.39-.7-.66,0-.74-.26-1,.41-1.85,2.03-2.54.6-1.92,1.71-3.08,3.34-3.48.87-1.68,1.63-2.03,2.27-1.06,1.38-.29,1.81,1.42,1.82,2.61l1.26.55c4.16,4.94,9,9.23,14.51,12.86,4.22,3.2,7.29,7.53,10.05,12.04l.02,1.35c.99,1.95-.42.91-1.46,0l-.83.37c-2.91-2.13-6.02-3.61-9.34-4.45-4.49-1.23-10.16,5.86-4.18,7.47-2.34-4.22.82-6.46,4.85-5.71,6.33,1.17,14.07,9.13,17.65,14.1,1.63,2.27,5.87,8.99,6.11,11.45.11,1.09-.15,1.19-1.07,1.44-5.28-4.24-12.82-4.88-17.33.95l-.58.06c-.06.43-.12,1.05.36.74,1.2-3.34,7.11-4.89,10.42-4.38,11.15,1.72,15.88,16.39,11.51,25.88.71-.91,1.44-1.03,2.22-.07.91,1.12-.13,15.91-.22,16.92-2.07,23.65-5.71,44.73-14.57,66.84-5.16,12.89-11.34,23.75-18.74,35.37,0,.01.06.34.07.33,7.21-9.67,13.15-21.22,17.86-32.51,17.54-42.07,21.45-88.29,8.43-132.53-4.83-16.39-11.41-29.45-19.19-44.41-.53-1.02-.81-2.15-1.06-3.27-1.14-.7-1.38-1.2-.73-1.49.43-1.88,2.46-2.13,3.64-2.23.33-.42.58-.17.73.74Z" fill="#112f39"/>
  <path d="M180.02,207.69c-2.76,2.61-7.64,4.57-10.57,7.25-.79.46-6.88-2.22-6.88-2.6,1.58-1.8,7.47-2.38,7.62-5.23.03-.59-.42-1.22-.3-1.77.25-1.1,2.72-1.67,1.94-3.96-1.64-4.83-10.85-.56-14.29-.12-2.35.3-1.67-1.24-2.99-3.07-1.2-1.66-3.25-2.4-4.17-3.55s-1.16-3.1-2.39-4.63c-1-1.25-3.02-3.03-4.71-2.24-3.32,1.56.06,6.04-.37,6.51-2.51-.71-8.28-5.57-10.2-2.06-1.15,2.1.3,4.55,1.65,6.16,1.07,1.28,3.07,2.34,3.83,3.53.83,1.31.79,2.97,1.98,4.3.9,1,3.23,2.46,4.56,2.59-.81,2.91-1.67,3.88.2,6.67,1.51,2.26,3.55,2.99,5.62,4.12l-.24.75c-22.73.59-45.43,1.03-68.12,1.32-.39-2.71-.4-5.51-.04-8.4-.17-.33-.33-.67-.44-1.02s-.2-.69-.18-1.02c.35-7.54,1.94-16.05,3.8-23.37.08-.32.27-.61.47-.91s.45-.58.71-.84c1.15-.87,1.31-1.24.48-1.1l.24-1.51c-.11-.3-.2-.61-.25-.92-.33-2.22,4.53-14.48,5.87-17.25l1.3-1.18c.72-1.45,2.12-1.82,4.18-1.1l19.35-.51c2.74.44,5.58.93,8.34,1.6,12.28,8.86,24.96,17.43,38.02,25.72,4.46,3.08,9.32,6.44,13.07,10.32,1.54,1.6,5.76,6.14,2.9,7.51Z" fill="#ddc28b"/>
  <path d="M369.56,163.4c1.89,4.24,3.92,8.89,5.09,13.4.9,1.55,1.11,2.91.63,4.08.56.02.95.52,1.19,1.5.23.84.52,1.8.73,2.61.09,1.03.27,2.04.73,2.98.8,3.25,1.54,6.37,2.18,9.68l.27,3.1c-2.73.19-2.84.28-.35.26,1.01.55,1.29,3.66,1.17,4.82.01.32-.08.6-.32.6-2.33.03-4.64,0-6.97-.03-.32,0-.48-.23-.52-.58v.57s7.92.12,7.92.12l.63,2.65c.47,4.27.68,8.52.65,12.77-20.64.01-41.33-.15-62.05-.48l-.44-.75c2.4-1.44,5.54-3.82,5.81-6.93.1-1.17-.7-2.65-.18-3.49.28-.45,3.31-1.93,4.2-3.15,1.06-1.46.75-2.88,1.44-4.11.5-.9,2.3-1.88,3.12-2.77,2.94-3.19,6.48-8.7-1.11-7.83-2.12.24-5.89,3.99-6.9,3.73-1.71-.44,1.46-2.84,1.79-3.37,2.03-3.23-2.13-5.6-5.63-2.41-2.31,2.11-2.21,5.12-3.62,6.72-1.09,1.24-4.56,2.86-5.82,4.48-3.52.27-10.96-4.33-13.48-1.15-1.87,2.36.41,3.26.93,5.01.32,1.07,0,1.98.57,3.14,1,2.02,5.42,2.67,6.86,4.51,0,.48-5.65,2.96-6.7,2.79-.67-.11-7.98-5.09-9.3-5.95-1.41-1.06-1.53-1.55-.36-1.49.75-1.48,1.41-2.93,1.99-4.37,3.12-3.6,6.81-6.59,11.06-8.97,13.38-10.4,26.87-20.67,40.46-30.81l2.51-1.26,2.77-.74c6.12.06,12.07-.05,17.86-.31l1.2,1.43Z" fill="#ddc38c"/>
  <path d="M153.46,222.58c-19.02,10.59-45.2,37.02-56.03,56.2-.99,1.28-3.66-.07-2.36-1.72l2.7-3.17c-.52-1.58-1.16-1.83-1.92-.74-1.97-.54-1.78,1.87-1.14,3.16-.14.56-.42,1.1-.82,1.6.15,1.72-.96,2.42-1.91.87-.33-.31-.64-.63-.92-.99s-.53-.7-.68-1.08c-6.29-16.52-9.11-33.51-9.29-51.21,0-.42.11-.84.23-1.27s.29-.86.48-1.27l.25-.75c23.65-.12,47.3-.25,70.96-.37l.45.74Z" fill="#dbc088"/>
  <path d="M382.66,230.02c-.23,3.6-.47,7.2-.73,10.79-.44,4.09-1.01,8.15-1.82,12.28l-.74,1.87c-8.66.05-17.33.17-25.99.37l-.55-.38c-10.09-11.63-23.01-21.1-35.29-30.15-1.02-.65-.78-1.41.36-1.8l64.44-1.06c.83.59.58,6.87.32,8.07Z" fill="#dcc28a"/>
  <path d="M333.91,103.11c-2.08,1.46-4.1,3-6.18,4.47-2.43-2.27-6.45-6.15-9.46-7.44l-1.15-.68c-1.49-.29-2.32-.93-2.49-1.92-5.9-4.05-11.71-7.28-18.19-10.42l-2.76-.65c-1.05-.65-2.07-1.31-3.06-1.96l-.59.25c-23.79-9.55-49.96-13.42-75.9-9.64-12.41,1.81-22.63,5.27-34.38,9.34-.96.33-1.99.39-2.99.42-.92,1.41-2.5,2.15-4.73,2.23-6.25,2.91-12.04,6.02-17.79,9.9-3.74,2.52-9.14,6.26-12.39,9.29-.65.61.16.73.35,1.28-2.23-1.55-4.57-3.54-6.91-5.21,55.58-49.1,143.35-49.19,198.64.74Z" fill="#112f39"/>
  <path d="M369.92,80.04c-1.52,1.13-3.16,2.28-4.73,3.35.22-.31-.13-.98-.35-1.32-.86-1.36-4.28-4.13-5.67-5.37-49.08-43.9-116.07-59.84-178.88-39.72-28.01,8.97-53.69,24.87-75.08,45.28l-.15,1.51c-1.75-1.24-3.51-2.57-5.46-3.72C149.87,30.66,221.33,10.87,289.4,31.15c30.69,9.14,57.08,26.76,80.46,48.02l.06.87Z" fill="#112e38"/>
  <path d="M214.58,282.5l.19-3.64c13.48.29,27.13.41,40.66.43l.26,2.1c2.59,9.8,6.85,17.28,15.28,23.07l-.35.78c-19.92,1.07-42.7.77-63.65.26-2.02-.05-4.06-.12-6.08-.28-.67-.05.49-1.32.95-1.5.93-1.29,2.06-1.82,3.1-2.97,4.81-5.37,8.18-11.02,9.64-18.24Z" fill="#dbbf87"/>
  <path d="M369.92,80.04c-1.23-.58-2.62-1.86-3.64-2.79-26.48-24.08-55.41-41.26-90.51-48.83-63.35-13.66-123.65,4.8-171.42,48.07-1.4,1.27-2.71,3.69-4.72,3.54-.4-.23-1.39-.7-1.44-.76-.52-.75,2.73-4.13,3.43-4.83,24.73-24.83,64.37-44.39,98.34-50.88,58.5-11.17,122.5,6.93,165.98,48.46,1.28,1.22,4.65,4.32,5.47,5.57.95,1.46-.47,1.69-1.47,2.44Z" fill="#e0b064"/>
  <path d="M75.24,110.55c1.56,1.12,3.19,2.25,4.73,3.35-2.01,1.99-3.71,4.49-5.09,7.49l-2.39,3.25-.61-.06-1.37,2.34c-4.08,5.87-8.29,15.6-11.08,22.34-21.7,52.42-20.1,110.89,4.22,162.01,3.44,7.24,7.8,15.8,12.45,22.24.37.52.49,1.12,1.32,1.07-.58,1.76-1.78,4.55-2.55,6.33-.27-.04-.57-.1-.71-.31-38.7-58.44-46.44-131.53-17.89-196.67,2.9-6.61,6.23-13.91,10.04-19.98.63-1.01,1.49-1.84,2.37-2.62l.04-1.48c1.11-2.14,3.88-6.73,5.31-8.54.31-.39.75-.61,1.2-.78Z" fill="#112e38"/>
  <path d="M107.26,140.7c-1.95,2.49-3.49,5.57-4.94,8.52l-1.24.78v1.52s-4.24,8.39-4.24,8.39l-1.21.88c.4,1.32-.08,2.44-1.46,3.35-2.89,6.72-4.97,12.24-6.91,19.35.6,1.31.35,2.17-.73,2.61-2.15,8.62-3.98,18.25-4.37,27.17l-.34,6.91c.8,1.45.79,2.37-.03,2.76.08,19.9,2.77,37.43,10.19,55.82l.99.53,1.92,5.06c-1.45,2.93-2.69,5.54-4,8.56-.28.08-.72.15-.8-.04-7.74-17.35-13.56-36.78-15.08-57.06-2.42-32.39,6.25-65.45,21.83-93.61.24-.43.57-.81.92-1.19s.74-.73,1.14-1.07c.19-.46.31-.88-.09-1.27,1.4-1.59,2.27-3.36,2.62-5.3l.74-.5c.88,3.6,2.53,5.43,5.09,7.82Z" fill="#112e39"/>
  <path d="M403.03,118c41.05,67.06,40.96,152.06-1.52,218.58-.8,1.25-5.76,8.82-6.28,9.22-1.35,1.04-1.71-.63-2.01-1.52-.13-.84,0-1.31.35-2.06,1.41-3,4.84-7.15,6.71-10.26,39.74-66.12,39.92-145.03.58-211.36-1.16-1.85.65-5.28,2.18-2.61Z" fill="#e0b165"/>
  <path d="M65.79,120.23c.91-1.2,1.37-1.8,2.08-.13,1.21-.29,1.36.1.83,1.24-38.06,64.26-38.46,141.56-1.52,206.43,2.21,3.88,4.8,7.55,7.06,11.39.34.58.76.98.65,1.76-.27.63-1.25,3.4-2.01,2.61-30.42-43.73-42.66-99.21-33.54-152.3,4.36-25.4,13.47-49.05,26.45-71.01Z" fill="#dfb065"/>
  <path d="M256.78,267.98c-.42,1.33-.48,2.07-.73,3.35-.35,2.64-.54,5.29-.56,7.95-13.5.06-26.99-.17-40.48-.68l-.43-.57c-.15-3.31-1.36-6.88-1.46-9.68l-.45-1.9c6.97-4.72,14.22-8.91,21.74-12.56,7.7,3.69,15.67,7.56,22.46,12.68l-.1,1.4Z" fill="#dbc088"/>
  <path d="M107.26,140.7c7.64,7.09,18.1,13.77,26.56,20.1.75.8.87,1.12-.26,1.45-1.66-.36-12.07-.76-12.33-.19-.37.81,11.26.66,12.11.36,1.17.04,2.3.23,3.4.6,10.39,7.79,21.04,15.26,31.26,23.29,4.12,3.24,11.14,8.1,14.22,12.06l.46,1.33c-1.85,2.08-1.55,4.12-.61,6.59l-.58.64c-.46.3-.86.71-1.46.74.16-.15.99-1.22,1-1.3-1.91-3.31-4.98-6.51-7.94-8.91-10.36-8.38-23.44-16.01-34.58-23.43-3.97-2.65-10.37-8.25-14.24-10-2.81-1.27-10.54-.61-13.91-.58-4.01.03-7.99.3-12.03.31-1.56,0-2.88-1.01-4.17.35.49-1.14.94-2.22,1.46-3.35,6.66.27,13.43.22,20.14-.07.21,0,1.28-.18,1.23-.22-4.96-3.78-10.86-7.44-15.92-10.51,1.35-2.44,3.08-6.37,4.65-8.45.48-.64.55-1.01,1.53-.85Z" fill="#a48757"/>
  <path d="M256.78,267.98c-.08-.93-1.36-1.72-2.06-2.17-3.89-2.56-8.49-5.08-12.52-7.28-2.55-1.39-5.26-2.49-7.79-3.93-7.53,3.31-14.13,8.31-21.23,12.33-.17.19-.07,1.06-.06,1.43-.66-1.59-1.3-3.2-2.11-4.73-.46-.86-2.48-3.03-2.1-3.83l26.59-18.24,25.49,16.36c.42.66-.91,2.08-1.26,2.84-1.05,2.31-2.19,4.79-2.95,7.21Z" fill="#997e4e"/>
  <path d="M198.21,306.31l-.4,1.4c-5.73,5.51-11.95,10.69-19.86,12.25-8.82,1.74-15.58-.38-23.77-3.26-6.54-1.59-13.18,3.11-15.21,9.39l-.79.31c-.26,1.27-6.23.94-6.42.49l.23-2.35c2.16-9.02,7.18-21.7,18.01-21.58,3.27.03,6.41,3.49,9.17,5.14,10.43,6.21,21.98,6.48,32.94,1.46,1.94-.89,4.18-2.7,6.1-3.25Z" fill="#a48857"/>
  <path d="M334.64,162.66l1.37-.56c3.47.27,6.94.34,10.42.2l1.31.73c-14.11,10.47-27.77,21.64-41.86,32.17-4.19,3.13-7.96,4.59-11.45,9.12-.91,1.17-1.54,3.04-2.71,4.11-.72-.43-.67-1.31.13-2.64l-1.52-.95c-1.64.54-4.37-.42-3.7-2.36,2.63-6.57,2.84-5.17,7.97-9.15,13.3-10.31,26.67-20.54,40.05-30.67Z" fill="#a58958"/>
  <path d="M194.94,279.52l.61-.78c1.3-.01,9.51.24,9.91.84.76,1.17-.43,4.99-1.05,6.26-3.03,8.16-17.8,15.32-25.83,16.38-2.55.2-5.09.23-7.64,0-.72-.11-.88-.21-1.46-.37-8.08-3.61.51-7.94,5.06-9.07l.77.51c2.54,2.64,6.59,4.59,10.34,4.06,1.3-.18,3.99-1.25,2.95-2.95-.19-.32-4.07-2.06-5.1-2.98-1.12-1.01-1.73-2.04-2.37-3.34l-.37-1.41c.16-.72,10.85-7.05,12.74-6.78-.25-.83,1.05-.93,1.46-.37Z" fill="#d9be86"/>
  <path d="M132,324.55c.1.45-.25,1.79.21,1.87,1.66.27,4.16-.07,5.97,0l2.72-.4c61.3-.2,122.74-.2,184.3,0l3.25.4c.54-.02,1.25-.36,1.98-.39,2.12-.09,4.27.09,6.38.01.41.92-.14,1.32-1.64,1.18l-5.27-.11c-.06.61-.3.99-.73,1.16-38.8.08-77.61.08-116.42,0-3.9.37-7.81.74-11.73.77-17.53.14-35.07.21-52.6.22-3.91,0-7.81-.3-11.7-.62l-.86.73c-3.19-.29-6.01-.19-2.94,3.2l-.21.91-2.18-1.49c.4-2.49.87-4.99,1.46-7.44Z" fill="#907343"/>
  <path d="M395.03,123.95l-.14.75c-5.08,2.09-9.7,5.23-13.86,9.4-.39.36-.84.19-1.29-.11l-.91-.52c-1.44-7.52-1.11.16-.38,3.19.56,1.16.63,2.13.2,2.91-1.15-.06-1.23,1.19-1.84,1.65-.49.37-1.27.33-1.79.78-.65.56-.82,1.91-1.45,2.61-.7.76-2,.92-2.56,2.04l-.49.12c-1.68-2.77-3.46-5.54-5.33-8.31,1.07-1.27,2.53-2.4,2.51-4.24-.01-1.19-1-2.82.19-3.97,6.98-5.66,14.51-10.57,21.67-15.98.26-.12.68-.25.79-.09.83,1.21,4.77,7.91,5.03,8.93l-.37.84Z" fill="#122328"/>
  <path d="M353.92,256.44c-.3-.43-.36-.82-.17-1.17,8.55-.09,17.1-.17,25.66-.25l-.02,1.42c-1.57,7.16-4.11,17.32-7.46,23.82-.32.62-.4,1.15-1.27,1.12-4.68-9.07-10.17-17.15-16.73-24.94Z" fill="#dbc088"/>
  <path d="M102.17,132.14l-.56.17c-.5,2.57-2.43,5.57-4.53,6.9-.61-2.03-2.17-1.89-3.55-2.89-1.73-1.25-2.69-3.08-4.82-3.81l-.66-.48c.06-2.98-.32-4.94-3.41-5.7-3.81-.94-7.58,3.34-.68,1.36,2.62.06,3.64,4.59,1.48,5.56-.76-.05-1.54-.45-2.32-1.19-1.84-.75-3.35-1.77-4.53-3.05.16-1.01-.84-1.47-3.01-1.38-1.26-.3-2.77-.84-1.77-2.19l-.37-.86c1.6-3.36,3.51-6.59,5.73-9.68l1.19-.63c6.08,4.38,13.5,9.32,19.08,14.16,1.38,1.2,2.47,1.67,2.74,3.71Z" fill="#122429"/>
  <path d="M363.74,152.24l-.33.8c-.96.47-10.76,6.81-10.16,6.92,4.01.72,10.44.22,14.49-.27.6,1.24,1.25,2.46,1.82,3.72-1.89-1.65-4.68-.36-6.73-.34-4.92.06-10.04-.04-15.1-.03-.2-.66.09-1.19.86-1.59-3.79-.1-7.57.04-11.35.4-.81-.3-.62-.82-.07-1.41,7.05-5.32,15.17-10.43,21.83-16,2.04,2.24,3.26,5.18,4.73,7.82Z" fill="#a38756"/>
  <path d="M220.4,162.29c-2.06-1.48-1.02-1.99,3.12-1.53,7.73-.33,15.78-.32,23.54-.29,3.91-.42,4.85.06,2.82,1.45-1.26,1.38-4.85,3.46-6.58,4.62-2.79,1.87-5.72,3.58-8.58,5.35-.51.05-4.28-2.39-5.05-2.89-2.15-1.4-7.79-5.03-9.27-6.71Z" fill="#dec48e"/>
  <path d="M382.66,231.51v-1.49c0-1.22.2-6.56-.16-7.09-.18-.26-.46-.33-.75-.35l-64.1,1.18-.11,1.05c-.78-.57-2.54-.6-2.18-2.23,1.79.09,3.27-.99,4.73-1.86l61.98.69.44-.29c-.01-3.9-.49-7.96-.57-11.93v-.37c.79,6.87,1.17,13.66,1.1,20.66,0,.63.23,1.65-.37,2.04Z" fill="#9e804f"/>
  <path d="M82.16,213.27c-.11,2.59.08,5.22,0,7.82l68.4-1.49c.83.45,4.45,1.84,3.64,2.98-.07.09-.58-.08-.73,0l-71.67.37c0-1-.18-1.79-.33-2.75l.69-6.92Z" fill="#9a7d4b"/>
  <path d="M255.69,281.38c-.07-.27-.49-1.5-.57-1.51l-29.46.04c-3.49-.62-7.17.14-10.71-.76.25,1.31-.16,2.3-.37,3.35-.05-1.48.07-2.99,0-4.47l40.74.74c-.29-2.58.25-4.96.73-7.44l-.36,10.05Z" fill="#997e4e"/>
  <path d="M254.23,158.94c-1.41.99-2.74,2.31-4.37,2.98.14-.15.79-1.06.73-1.11-2.3.57-4.73.39-7.11.39-4.89,0-9.94.05-14.84.12-3,.05-5.97.47-8.97-.13-.07.05.59.96.73,1.11-1.29-.48-2.45-1.75-3.64-2.61l34.76.02,2.71-.76Z" fill="#b49763"/>
  <path d="M193.48,279.89c-3.74,1.39-8.08,4.92-11.58,6.97-.58.34-1.04-.19-.79,1.22-1.39-2.83-1.62-4.64-1.46-7.82l.23-.75c4.04-.29,9.09-.31,13.16-.2.22,0,.35.3.44.58Z" fill="#a08453"/>
  <path d="M395.75,109.44c.43.47.34.99-.25,1.58l4.83,7.24c.33.52.35,1.27-.22,1.6.27,1.17-.72.56-1.46.91-.84.39-1.24,1.22-2.18,1.32l-.96-.18c-1.66-2.92-3.41-5.71-5.23-8.38,1.57-1.2,3.96-3.32,5.46-4.09Z" fill="#122328"/>
  <path d="M307.71,121.72c-1.33.93-2.68,2.05-4,2.98l.54-1.12c-6.78.23-13.7-.23-20.37-.03-2.36.07-5.03.97-7.46.4l1.1-1.67c10.03-.68,20.22.41,30.19-.57Z" fill="#b69963"/>
  <path d="M75.24,110.55c-1.78,3.8-4.41,7.17-6.55,10.79.2-1.36-.56-.08-1.29-.7-.83-.7-.02-1.84-1.62-.42,2.16-3.66,4.21-7.37,6.72-10.81.5-.7,2.03.63,2.74,1.14Z" fill="#b3874a"/>
  <path d="M91.98,278.77l1.46.18c-.96-1.33.64-2.33.63-2.59,0-.2-.55-.52-.54-1.03,0-.35.33-2.37.43-2.53.35-.56,1.32-.18,1.76-.37.39-.16.1-.88,1.17-.76.58.07,1.77,1.75,1.61,2.38-.18.68-3.25,3.54-3.23,4.17l2.17.56c-1.01,1.79-1.65,3.76-2.55,5.58-.95.06-.91-.56-1.21-1.19-.64-1.37-1.13-2.97-1.71-4.4Z" fill="#d5b980"/>
  <path d="M379.38,256.44c.2-1.13-.56-.72-1.26-.74-7.52-.3-15.89.7-23.12.18-.66-.05-1.25-.67-1.09.57-.41-.49-.73-1.07-1.09-1.49,3.61-.75,7.42-.26,11.11-.36.86-.02,1.66-.38,2.52-.4,3.86-.1,9.18.54,12.77.05.8-.11.45-.69.89-1.15-.23,1.15-.48,2.22-.73,3.35Z" fill="#b39560"/>
  <path d="M403.03,118l-1.09-.74c-.31,1.2-1.37,1.96-1.1,3.35-.15-.26-.57-.48-.73-.74-.14-.22-.15-.79-.42-1.23-.69-1.14-4.93-7.13-5-7.58-.08-.59.86-1.05,1.05-1.61.7-.36.79-1.08,1.65-.4,1.21.95,4.56,7.21,5.62,8.96Z" fill="#b08448"/>
  <path d="M136.73,163.03c-1.35.58-2.57.1-3.76.14-3.02.09-6.14.49-9.17.25-1.97-.16-3.38-1.06-5.26-1.13-.08-.98-.04-.62.55-.73,3.95-.75,9.57-.53,13.64-.19.66.05,1.26.67,1.09-.56.98.73,1.94,1.5,2.91,2.23Z" fill="#68502b"/>
  <path d="M337.18,160.42c-.17,1.29.49.55,1.1.55,2.82-.03,9.06-.75,11.37-.1.28.08.75.47.62.66-.85.32-1.82.95-2.55,1.49-4.34,0-8.83.28-13.1-.37.72-.55,1.59-1.51,2.55-2.23Z" fill="#745b34"/>
  <path d="M152.37,114.28c2.54,1.1,2.94.06,5.26-.01,5.9-.18,11.76.54,17.66.39-.14.68-.72.69-1.26.75-2.04.23-4.48-.19-6.58-.03l-11.44.76c.31.47.72,1.08,1.09,1.48-1.7-.69-3.37-2.1-4.73-3.35Z" fill="#bfa26c"/>
  <path d="M286.61,202.48c-.22.56,1.95,1.77,2.08,1.81.82.24,1.76-.82,1.91-.69.04.03.04.63.38.91.38.31,1.8.8,1.81,1.14,0,.15-.92,1.48-1.08,2.79-.06.47-.55.64.36,1.49-2.26-1.47-4.62-2.8-6.76-4.46-.24-.45.96-2.15,1.3-2.99Z" fill="#7b6239"/>
  <path d="M194.21,131.77h-15.82s.54,1.12.54,1.12c-1.18-.84-2.45-1.77-3.64-2.61,1.23.85,2.67,0,3.46,0h13.1c.29,0,1.17.68,1.78.4.16-.04.46-.86.59-1.14,1.07.41.94,1.71,0,2.23Z" fill="#c5a872"/>
  <path d="M79.97,113.9c.13.09.23.27.36.37-1.35,2.56-3.15,4.87-4.66,7.33-.71,1.17-1.22,2.69-1.89,3.83.37,1.06.31,1.12-.73.74.1-.74-.17-1.63-1.08-1.49-.02,1.06-1.03,1.61-1.46,2.23.7-2.32,2.64-4.19,3.94-6.21,1.08-1.69,2.44-4.85,3.74-6.22.61-.65.91-.72,1.78-.6Z" fill="#9c7e4c"/>
  <path d="M163.28,122.09h17.1c.14.8-.35.89-.91,1.11-2.24.9-12.08-.05-12.54.38l.73,1.49c-1.43-1.01-2.92-1.93-4.37-2.98Z" fill="#bb9e69"/>
  <path d="M371.02,146.65c.08.15-.08.59,0,.74-.02,1.28-.39,2.02-1.09,2.23-1.78-3.5-3.7-6.91-5.46-10.42.23-.25.5-.48.73-.74.94-.16,1.06.24,1.55.83.94,1.14,3.48,5.85,4.27,7.35Z" fill="#927445"/>
  <path d="M396.48,122.09c.32.53.5,1.1.73,1.49-.57.19-1.18.31-1.82.37-.12.32-.24.32-.36,0l-5.46-9.68c.16-.12.37-.47.73-.74.66.03,1.07.43,1.46.93,1.54,1.97,3.36,5.38,4.73,7.63Z" fill="#967849"/>
  <path d="M97.07,139.21c1.08-2.04,2.72-3.97,3.72-6.06.46-.96.08-3.02,1.37-1.01.03.23,0,.5,0,.74-.03,3.3-1.85,4.49-3.27,7.07.35-1.71-.87-1.28-1.82-.37v-.37Z" fill="#8d7347"/>
  <g>
    <path d="M105.44,84.13c.17-.67.7-1.23,1.61-1.68,27.2-26.74,63.48-44.61,100.46-50.78,2.56-.44,3.29,1.38.97,2.58-4.2,4.02-8.12,8.38-10.94,13.55-.68.32-1.26.32-1.74-.29l-1.76-4.43c-.82-2.56-8.03-1.1-8.85.24,4.87-1.73,10.38-1.1,9.8,5.52-.76,8.67-13.64,15-21.33,15.45-3.76.22-13.13-.46-16.52-1.69-1.18-.43-1.56-1.16-.62-2.09,4.23-.87,6.72-3.64,9.45-6.79.14-.16-3.41,1.41-3.69,1.81-6.1,4.94-11.77,9.01-19.83,9.96-8.91,2.75-18.17,7.31-23.45,15.46,7.88-9.29,28.62-20.79,37.19-7.21-.88-3.76-4.38-6.07-7.91-6.77-.98-.36-1.21-.92-.82-1.9,1.01-2.54,20.33-.76,22.64-.11,18.04,1.01,25.64-10.65,33.88-25.31.85-.95,1.15-.41,1.62.68-1.36,6.73-.23,13.61,4.92,18.29-5.22-7.18-6.5-14.79-1.74-22.54,3.41-5.55,7.19-5.58,13.16-5.45.75.32,1.27.6.85,1.38-13.91,11.3-4.95,36.14,13.51,28.75,12.99-5.2,12.71-19.32,4.88-29.03l.31-.84c.53-1.22,5-1.16,5.64,0,.13-.28.31-.59.59-.64,1.11-.17,7.79,4.98,8.76,6.04,5.88,6.47,6.06,12.43,2.24,20.07,2.36-1.86,3.57-4.61,3.64-8.26.66-.66,1.08-1.05,1.64-.18,2.71,7.2,7.83,12.98,14.33,16.81,12.58,7.41,23.25,5.08,36.46,2.13,8.25-1.59,17.22,1.64,22.24,8.64,8.47,11.8-7.11,19.6-13.76,8.61-2.16-7.71-2.9-2.44-.51,1.11,2.53,3.75,7.65,6.33,11.99,4.69,9.63-3.64,6.01-13.77-.48-19.01-9.18-7.42-18.91-6.7-29.53-2.61-2.33-.04-.5-2.4.42-3.39,2.72-5.25-1.44-9.59-6.28-10.86,3.55,1.73,7.92,6.01,5.62,10.36-4.69,8.89-20.65,2.9-26.84-1.22-2.22-1.48-8.04-6.24-8.84-8.59-.32-.92-.08-1.16.74-1.59,3.34.55,6.8.28,8.84-2.81-5.61,3.11-9.8,3.93-13.43-2.25-2.62-6.46-4.84-11.47-11.08-15.23-.13-.39-.31-1.27-.22-1.37.92-1.1,13.26,1.11,16,1.62,35.07,6.42,68.32,25.68,94.26,49.88.56-.1.97.08,1.23.54-2,1.37-4.15,2.55-6.15,3.94-3.08,2.14-11.24,8.93-13.87,10.01-1.05.43-2.29.12-3.71.67-2.62,1.02-5.36,3.57-7.55,5.11-.05-.65-.34-1.07-.77-1.48-31.02-30.04-84.33-41.84-125.86-34.24-26.16,4.79-51.96,16.33-71.58,34.31l-.43.67c-1.8-1.28-5.37-4.35-7.46-4.13-.98.11-1.48,1.08-2.35.61-1.94-2.02-4.21-3.7-6.44-5.35-4.42-3.26-9.14-6.24-13.58-9.37Z" fill="#112f39"/>
    <path d="M333.91,103.11c-.28.12-.79-.02-1.07-.2-16.62-14.6-36.61-25-57.71-31.04-47.44-13.58-100.94-2.3-138.42,30.3-.35.17-1.13.33-1.44.19-.19-.08-.54-1.1-.31-1.44,22.53-19.37,49.84-31.48,79.13-35.35,39.33-5.2,89.18,6.64,118.74,34.74.67.64,2.58,2.18,1.09,2.8Z" fill="#d6b679"/>
    <path d="M129.45,84.87c.92-4.11,7.27-4.29,8.91-.37,2.32,5.54-4.12,10.7-9.21,9.42-1.04-.26-2.92-1.21-3.18-2.34-.31-1.33,2.44-.09,3.3-.02,3.32.28,7.95-.82,6.65-5.31-.73-2.52-4.67-1.17-6.47-1.38Z" fill="#cdac70"/>
    <path d="M250.96,56.59l2.46-4.73,2.08-7.17c2.42,3.56-.02,11.2-4.54,11.9Z" fill="#c7a970"/>
  </g>
  <path d="M296.44,87.11h-124.42c1.58-.74,3.12-1.56,4.73-2.23,29.97.84,60.09.73,90.35-.31l19.8-.11c4.6.73,5.84.9,3.72.51v-.46c2.04.35,3.95,1.7,5.82,2.61Z" fill="#a48652"/>
  <path d="M318.26,100.13c-3.21-1.38-10.91-.77-14.75-.73-8.45.1-16.98,1.17-25.44,1.08-2.61-.03-5.23.05-7.83.01-.58-.45,0-.68.54-.74,5.99-.72,12.16-.39,18.19-.75,8.16-.48,15.26-1.34,23.67-1.13.52.01,3.07,1.01,1.98-.36,1.15.79,2.75,1.39,3.64,2.61Z" fill="#c1a46f"/>
  <path d="M210.21,99.39c-.21,1.15-.03,3.52,0,4.84l-.36-3.35-35.29-.92,35.65-.56Z" fill="#c0a26d"/>
  <path d="M88.7,132.51c-.22,1.15-2.05,3.62-2.91,4.47.9-1.52,1.07-3.29-1.09-2.61-.79-.64-.21-1.41.73-1.12.44-1.29.71-3.59-.52-4.49-1.6-1.17-4.83,1.21-5.26-.21-1.05-3.49,5.67-3.96,7.8-1.64,1.15,1.26,1.56,3.98,1.26,5.6Z" fill="#a28453"/>
  <g>
    <path d="M97.07,139.21c.16.12.15.24,0,.37l.33.73c-24.28,40.05-30.11,91.81-14.11,137.19,2.01,5.69,4.32,11.77,7.24,16.52-5.51,12.9-8.45,25.09-12.73,38.33-.28-.06-.56-.13-.82-.25-2.45-1.14-10.4-17.55-11.73-20.43-7.6-16.4-14.92-35.85-17.28-53.88-.13-.98.74-1.17,1.45-1.25-3.93-9.67-6.2-25.61,3.23-32.49,2.75-2.01,7.8-3.54,10.23-.74.8.28,1.05-.22.36-.74l-.6.16c-6.9-3.98-12.15.07-15.98,5.86-2.95,1.39-.7-4.32-.15-5.61,3.7-8.56,10.29-14.01,18.25-6.46-1.38-1.94-3.42-3.24-5.61-4.01-1.11.04-1.96-1.04-.65-1.49.04-.29.11-.71.32-.74,2.04-.32,5.79-.1,7.68.74-8.57-3.62-15.31,1.08-19.69,8.64-1.77,1.05-1.34-3.53-1.21-4.97.57-5.94,3.65-11.31,8-15.2,7.23-5.21,12.24-9.95,16.87-17.27.11-.18-3.58.51-4.09.64-6.62,1.69-9.67,4.76-12.92,10.82l-5.49,12.54c-1.92,1.35-1.69-.81-1.48-2.59,1.41-12.34,9.49-26.56,17.93-35.18-6,4.94-10.13,11.82-13.15,19l-1.14.87c-.67.31-.79-.31-.36-1.86-.11-.35-.2-.7-.24-1.05s-.08-.69,0-1c2.11-9.03,4.4-18.23,8.13-26.64,3.06-6.92,12.4-18.74,20.85-16,11.09,3.6,6.03,19.85-4.47,14.49,2.22,3.4,7.11,2.17,9.35-.66,4.32-5.47,3.27-11.5-3.11-14.41-1.09-1.03,3.53-3.9,4.56-4.33l.96.11.83-1.4c.19-1.11.91-2.94,2.08-3.06.69-.63,1.53-.41,2.52.67l2.71,2.53c2.43.79,3.47,1.95,3.13,3.5Z" fill="#112f39"/>
    <path d="M97.07,139.58c.93-1.99,2.97-2.12,1.82.37-23.72,43.06-31.1,87.89-14.92,135.66l6.92,17.3c-.21.49-.26.88-.36,1.12l-1.17-.11c-22.02-45.22-20.75-100,2.2-144.55.99-1.91,4.35-8.68,5.52-9.8Z" fill="#d4b476"/>
    <path d="M72.7,248.26c.49,1.93-.29,1.23-1.09,0-2.71-4.48-9.8-12.35-15.09-7.07-4.47,4.46,1.97,10.02,4.76,7.84.43-.33.28-1.2.87-1.15-.96,4.03-5.97,3.36-7.93.11-5.57-9.27,6.32-14.12,12.66-8.3-.64-3.47-2.49-6.78-5.08-9.13-.65-.58-2.31-.85-1.64-1.67,5.34.51,6.61,4.25,8.19,8.74.48,1.36.52,2.93,1,4.19.72,1.89,2.45,4.05,3.35,6.43Z" fill="#d0ae71"/>
    <path d="M71.61,248.26c.78.48,1.21,1.35,1.09,0,.32.85.84,1.62.72,2.61-1.11-.42-1.34-1.82-1.82-2.61Z" fill="#5f6551"/>
    <path d="M63.24,222.58c.56.4,1.94.57,1.82,1.86-.41.41-1.84-.98-2.18-1.11.97.06.83.02.36-.74Z" fill="#74775d"/>
  </g>
  <path d="M371.02,147.4c19.43,37.15,25.62,78.47,14.37,119.46-.75,2.72-8.02,24.53-9.46,24.56-.36,0-1.22-1.39-.85-1.94,20.9-45.62,17.22-95.78-5.16-139.85l.37-2.6.72.37Z" fill="#d3b376"/>
  <path d="M378.66,139.58c-1.2-2.62-1.73-6.62-1.45-9.49.07-.78.51-3.25,1.13-1.53s.85,3.66,1.42,5.44c1.49,1.06,2.67,4.49,2.55,6.33-1.19-1.07-1.69.71-1.82,1.86-.45-.69-1.55-2.02-1.82-2.61Z" fill="#9d7d4b"/>
  <path d="M400.48,195.41c.03.53-.53,2.14-1.09,1.49-.29-1.15.35-1.54.73-2.23-.14.38.36.7.36.74Z" fill="#71745b"/>
  <path d="M87.25,183.5c-.04,1.3-.22,1.03.89,1.12,3.76.3,7.57.29,11.28.39,2.39.06,5.41-.31,7.66-.02.53.07,1.13.28.54.74l-21.1.37c.22-.88.49-1.74.73-2.61Z" fill="#bd9f6a"/>
  <path d="M381.93,208.81v.37l-.89-2.14-11.84-.09c-1.28-1,2.78-.7,3.1-.73.46-.05.96-.39,1.08-.39h7.82c-.3-1.18.09-3.83-1.27-4.09l-34.74-.37c-.57-.45,0-.68.54-.74,3.25-.39,6.57-.33,9.85-.39,1.55-.03,3.13.02,4.7,0,6.61-.06,13.24.08,19.84.02v-2.61c.74,3.81,1.37,7.29,1.82,11.16Z" fill="#bda06b"/>
  <path d="M376.47,182.38c-.35-.72-.51-.71-1.24-.77-2.31-.19-4.41.36-6.57.42-8.58.2-17.13-.2-25.66-.39l.54-.74,31.84-.75c.12-.12-.6-2.87-.73-3.35,1.19,1.53,1.32,3.75,1.82,5.58Z" fill="#bb9d69"/>
  <path d="M377.93,187.96c-.5-.94-.33-.56-.99-.51-3.06.23-6.11.51-9.19.5-.58-.45,0-.68.54-.74,2.65-.33,6.28.03,8.71-.36.46-.07.11-1.42.21-1.87.27,1.01.48,1.97.73,2.98Z" fill="#bb9d69"/>
  <path d="M382.66,231.51c-.06,3.24-.39,6.2-.73,9.3-.1-.45.25-1.79-.21-1.87-1.98-.32-5.1.07-7.26.02-2.68-.06-8.54.24-10.6-.34-.62-.17-1.01.27-.84-.79h18.91s.73-7.82.73-7.82c0,.5,0,.99,0,1.49Z" fill="#b59965"/>
  <path d="M290.62,84.5c.09.05,1.78.91,1.27,1.12-.85-.17-1.65-.4-2.53-.41-36.73-.32-75.43,2.21-112.06.4-.89-.04-1.19.27-.54-.74,32.72-13.74,66.69-15.87,100.69-5.31,3.99,1.24,9.55,3.02,13.18,4.94Z" fill="#e0c690"/>
  <path d="M73.79,125.44c.01,2,5.25,1.64,5.46,1.86.11.11-.19,1.33.16,1.88s5.61,2.47,6.02,4.08c-.08.24-.54.89-.73,1.12-2.04,2.38-6.69,3.07-9.55,4.19-5.61,2.19-9.74,5.46-13.37,10.33.6-2.41,1.93-4.88,3.02-7.14,2.54-5.29,5.33-10.49,8.25-15.56.15-.26.58-.49.73-.74Z" fill="#112f39"/>
  <g>
    <path d="M73.06,126.19l-.31,1.52c-2.92,5.7-5.8,11.39-8.61,17.09,4.72-4.79,10.83-7.19,16.99-8.97.98-.4,1.94-.88,2.72-1.61l.86.16c2.48-2.19,2.85.83,1.09,2.61-1.69,1.68-3.47,2.37-5.45,3.54,6.14,2.65,8.11,7.76,4.78,13.83-1.88,3.44-5.22,5.47-9.17,4.42-1.72-.46-4.08-3.18-2.18-4.66.06,1.83,2.04,2.48,3.51,2.58,6.65.47,9.15-8.67,3.95-12.63-9.82-7.47-20.94,8.65-24.1,16.65s-5.3,17.42-7.37,25.77c-.36,1.17-.24,1.79.36,1.86,3.78-9.47,9.79-19.09,18.92-23.82l-8.72,9.5c-6.79,9.32-12.06,20.56-13.47,32.18.63-.1.62-.75.83-1.2,3.45-7.35,5.67-16.29,12.88-20.69,3.33-2.03,6.72-2.37,10.47-3.06.36.02.21.94.11,1.23-.22.62-3.5,5.36-4.14,6.19-4.45,5.78-11.29,8.75-15.94,14.58-3.69,4.62-5.36,10.39-4.77,16.34,3.63-6.73,8.57-11.51,16.64-10.32,1.13.17,2.93.7,3.55,1.76h-8c-.18,1.11.29.59.85.78,4.05,1.4,6.84,4.16,7.87,8.52-3.44-4.01-7.18-8.25-12.93-5.97-3.94,1.56-8.38,9.86-8.53,14.16l4.36-5.4c4.42-3.31,8.54-3.78,13.1-.55,1.24.9,1.05,1.44-.36.74-7.7-3.01-14.25,3.68-15.61,11.02-2.78,15.05,6.17,34.64,19.13,42.14,1.79,1.04,3.48,1.93,5.59,1.38,3.64-.95,3.96-4.8.56-6.18-1.67-.67-3.66-.12-5.5-.71-.52-.16-.64.22-.53-.75,1.28.28,2.37-.58,3.49-.72,10.77-1.26,8.26,10.4,1.06,10.42-1.86,0-3.14-1-4.91-1.15-.29.26,3.4,4.96,3.79,5.61,4.76,7.86,6.43,17.1.58,24.91.72-3.96,1.76-7.63,1.46-11.74-.89-12.26-11.1-19.55-17.19-28.93-2.3-3.54-3.61-7.15-5.46-10.79-.24-.47-.62-1.2-.65-.09,3.71,22.07,11.54,43.5,22.01,63.09,2.1,3.94,4.34,8.05,7.1,11.53-.2.62-.16,1.62-.36,2.23-.4.99-.86.75-1.5,0-40.53-60.68-43.17-144.18-6.62-207.2l1.2-.47,1.35-2.36c1.33-1.2,2.22.28,1.2,1.61Z" fill="#d2b072"/>
    <path d="M50.14,188.34c-.27.68-.02,2.32-1.45,2.23-.24-.25.93-3.47,1.09-4.09.02.6-.23,1.54.36,1.86Z" fill="#776c4c"/>
    <path d="M67.24,183.87l-6.72,7.45c-2.64,1.95-5.12,4.02-7.46,6.32l3.04-5.26c2.94-3.76,6.93-6.44,11.14-8.51Z" fill="#1c3633"/>
  </g>
  <path d="M101.07,150l1.27-.4,16.92,11.56c-1.2-.24-2.36.24-3.45.3-6.04.36-12.78.32-18.93.07-.7-.03-1.46.38-1.26-.74,1.78-3.89,3.4-7.07,5.46-10.79Z" fill="#dcc089"/>
  <path d="M363.74,152.24c1.41,2.53,2.72,4.81,4,7.44.04,1.3.23,1.03-.89,1.12-4.99.4-10.44-.3-15.48,0,2.02-2.35,4.75-3.72,7.24-5.43,1.71-1.16,2.89-2.93,5.13-3.13Z" fill="#dcc189"/>
  <g>
    <path d="M404.85,273.19c4.78-9.86,7.64-22.9,1.39-32.87-2.65-4.23-4.74-3.78-8.21-6.12-2.78-1.87-4.58-5.61-4.45-9.02l1.52,3.09c2.4,3.92,12.02,8.52,16.49,8.47,5.02-.05,11.06-6.7,8.19-11.94,1.26-.19,1.98.94,2.16,2.06,1.24,7.7-7.27,13.79-14.16,11.7.75,2.38,2.03,4.22,2.72,6.7,1.46,5.18,1.67,11.16.83,16.47-.08.49-.83,1.92-.64,2.13.54.62.64-.23.81-.48,2.38-3.57,5.31-6.85,5.38-11.42.95.58,1.11,2.83,1.06,3.85-.28,5.66-5.74,7.54-8.04,11.9-.93,1.76-1.29,3.81-2.16,5.61-3.2,6.6-7.23,13.06-12.32,18.28,1.84.2,3.37.13,4.98,1.21.35.23.66-.04.47.83-8.52-.55-13.71,4.75-18.92,10.6-.43.48-.73.92-1.45.93-.27-.88-.45-1.73-.73-2.61.12-1.56,1.52-2.45,2.25-3.84,2.56-4.92,3.07-11.54,3.58-17,.54-.02.63,1.31.68,1.72.31,2.38.25,4.93-.06,7.3-.32,2.5-1.39,4.95-1.54,7.36,7.19-5.33,15.14-12.51,16.15-22.18.94-8.97-7.35-14.35-5.06-24.71.56-1.78,1.25-2.31,2.08-1.59l1.93,1.59c6.18,6.2,5.84,12.93,4.37,21.21-.43,1.37.05,2.32.73.74Z" fill="#cfad70"/>
    <path d="M399.76,251.23l-2.73-1.85-1.27,1.85c.85-3.83,2.05-1.96,4,0Z" fill="#2a3e39"/>
    <path d="M404.12,272.45v1.49s.36,0,.36,0l.37-.74c-.31.65-.3,2.2-1.45,2.61-.37-1.21.57-2.48.72-3.35Z" fill="#676248"/>
    <path d="M401.94,267.24c-1.32-5.23-4.66-10.07-4.37-15.63l2.8,4.76c1.04,2.38,2.7,7.41,2.27,9.93-.07.44-.21.88-.71.95Z" fill="#2a3e39"/>
  </g>
  <path d="M395.03,123.95c.13.03.31-.05.36,0,11.54,18.79,19.47,39.44,24.57,61.02.64,2.7,1,5.49,1.62,8.2.28,1.14.16,1.76-.36,1.86-3.27-9.44-10.26-24.08-16.38-31.81-3.55-4.49-8.67-7.86-9.77-13.83-.59-3.2-.61-6.92-1.14-10.19-.76.22-.8,1.15-.98,1.79-1.12,4.02-.43,7.6,1.34,11.24-.68.73-7.18-5.97-7.82-6.69-1.28-1.43-3.21-3.62-4.18-5.22-1.19-1.96-1.85-4.16-2.55-6.33,2.48-1.26,4.13-3.62,6.36-5.22,1.45-1.05,6.03-3.98,7.5-4.64.13-.06,1.35-.21,1.42-.19Z" fill="#112f39"/>
  <g>
    <path d="M204.39,285.84c.26-.69,1.35-5.21,1.06-5.55-.66-.08-1.3-.34-1.97-.4-1.9-.17-6.87-.55-8.55-.38l-.34-.33c-4.84.2-9.8.37-14.59.26l.02-1.42c.26-1.09.25-1.86,1.12-2.76.77-.81,4.38-2.97,5.55-3.63,1.34-.75,5.44-2.93,6.69-3.2,8.17-1.75,15.69,10.5,11.01,17.41Z" fill="#9f8353"/>
    <path d="M180.02,278.03c-.2,1.12.56.72,1.26.74,4.36.15,8.77-.22,13.12,0,.89.04,1.19-.27.54.74-.12.01-1.31.32-1.46.37l-13.82.37c.06-1.09.14-1.27.36-2.23Z" fill="#705731"/>
    <path d="M204.74,276.55l.38,2.22c-1.65-.39-3.24-.41-4.93-.39-.65,0-2.25.47-2.34.39-.66-.57.45-.8.73-.91,1.92-.79,4.14-.98,6.17-1.31Z" fill="#d8bc84"/>
  </g>
  <g>
    <path d="M194.21,131.77c-.1-.69.07-1.52,0-2.23.45-1.01.67-2.32,1.45-3.17,2.57-2.84,10.3-.69,13.47.57.41-2.39.88-4.84,1.09-7.26.45-5.21.13-10.25,0-15.44l-.23-3.29c-1.02-.19-.7-1.23.23-1.55.33-1.8,2.91-2.45,4.35-2.8,11.61-2.81,28.79-2.8,40.47-.44,1.4.28,5.81,1.27,6.39,2.39.22.42.41,1.59.41,2.11-.05,5.26-1.96,11.44-1.79,17.18.03,1.18.77,7.35,1.45,7.81,1.35.92,10.16-2.23,12.46,2.51,2.67,5.48-4.24,12.6-8.11,15.68-13.92,11.07-32.33,14.26-48.91,7.67-6.86-2.73-21.59-11.68-22.73-19.73Z" fill="#110c05"/>
    <g>
      <path d="M255.69,126.93c.19-.05.5-.62,1.09-.37-.11,1.92,1.1,7.85,0,9.12-.51.59-6.41,2.42-7.56,2.68-5.61,1.27-13.82,1.97-19.54,1.59-1.59-.11-3.79-.51-5.28-1.11.31-.64.99-.89,2.06-.73.53-2.05.77-4.21.72-6.49.28-.98.7-1.52,1.77-1.23,7.91.31,18.81.16,26.19-2.86.26-.11.42-.35.54-.6Z" fill="#40311d"/>
      <path d="M198.57,129.16c.36,6.07,6.03,10.25,10.73,13.03,14.64,8.66,35.47,7.77,50.11-.47,4.53-2.55,9.85-6.75,10.83-12.18.79-.91,1.42,2.33,1.4,2.81-.15,3.76-8.6,10.13-11.7,11.77-18.4,9.72-46.23,9.67-60.46-7.51-1.54-1.86-5.83-7.62-.91-7.45Z" fill="#4a3a24"/>
      <path d="M229.5,103.11l-2.36,23.1c-.09.28-.08.66-.43.74-.65.14-6.43.22-6.67-.02-.05-7.28,1.05-14.52,1.48-21.76.06-.93.08-1.97-.38-2.81,2.24-.87,6.31-.52,8.37.74Z" fill="#3f301d"/>
      <path d="M255.69,126.93l.49.75c-9.1,3.11-18.53,4.38-28.14,3.35-.55,1.99.11,6.1-1.06,7.58-.35.45-2.01.26-2.58.23-1.35-.08-3.04-.43-4.37-.74-1.22-2.14-1.47-4.67-.74-7.58-1.17-.05-6.06-1.29-5.99-2.54.01-.2.09-.39.19-.59l2.18.29c1.25.14,2.64.81,3.92,1.02,12.12,1.97,24.22,1.14,36.1-1.76Z" fill="#645236"/>
      <path d="M221.13,102.37c-2.09-.29-6.5-.87-8.2-1.85-.5-.29-1.05-.31-.89-1.13,1.59-.43,2.95.45,4.27.65,14.25,2.16,28.95,2.45,43.02-1.02.27,1.15-.51,1.35-1.39,1.74-6,2.63-21.63,2.67-28.44,2.36-2.65-.12-5.74-.38-8.37-.74Z" fill="#59462d"/>
      <path d="M215.67,127.67c-.59-.07-1.23.04-1.82,0-.11.08.19.44.36.56.19.13,4.07,1.47,4.35,1.52.5.09,1.42-.29,1.47-.22.18.2-.44,4.27-.38,5.41.07,1.24.85,1.98.38,3.14-1.8-.43-5.39-1.55-7-2.33-.58-.28-1.04-.67-1.31-1.28l.67-7.55,3.27.75Z" fill="#40311d"/>
    </g>
  </g>
  <g>
    <path d="M365.19,83.39c-.04.06-1.1.35-1.44.2-.52-.22-4.19-4.09-5.1-4.86-30.15-25.35-65.13-44.06-104.78-47.07,2.35,2.32,5.5,3.93,7.43,6.72,2.67,3.84,4.1,13.1,9.47,13.39,3.78.21,5.72-1.63,8.92-2.99-.16,2.86-3.87,4.97-6.36,5.21-1.47.14-2.77-.41-4.18-.19,4.39,6.55,11.72,11.5,19.28,13.4,3.71.93,10.15,2.01,13.28-.56,7.13-5.85-1.45-12.39-7.46-13.4.1-.68,1.88-.41,2.36-.36,6.18.59,12.59,5.47,9.21,12.4-.56,1.14-1.46,1.41-1.74,2.48,4.61-1.42,9.51-3.16,14.37-3.34,10.06-.38,25.49,8.93,22.49,20.77-.85,3.35-5.75,6.1-9.03,6.05-5.5-.09-12.53-5.79-11.1-11.94,2.29-.46,2.11,2.52,2.97,4.22,3.31,6.47,13.98,7.48,14.81-.72.39-3.9-2.01-7.18-4.68-9.64-13.77-12.67-26.74-.54-41.97-2.85-12.82-1.94-24.31-9.98-28.8-22.64-.26,2.83-.89,6.74-3.08,8.76-.84.78-2.46,1.51-2.04-.22.26-1.06,1.34-2.71,1.76-4.17,2-7.05.1-11.88-5.18-16.48-1.16-1.01-6.24-4.65-7.46-4.65h-5.64l3.2,4.73c3.1,6.06,4.09,14.4-.3,20.02-6.12,7.83-18.74,10.25-25.45,1.86-6.63-8.29-3.91-19.69,3.63-26.23-2.39.55-5.95-.06-8.11.45-1.47.34-4.85,4.29-5.72,5.68-4.73,7.51-1.3,18.28,5.1,23.64-5.22-.73-9.01-8.26-9.45-13.21-.26-2.97.36-5.49.54-8.37-1.68,2.67-3.1,5.44-4.83,8.08-4.47,6.82-8.62,12.85-16.32,16.05-10.41,4.33-16.33,1.14-26.49.78-1.41-.05-8.54.34-9.29,1.14s1.86,1.02,2.28,1.19c4.55,1.9,7.28,5.02,6.81,10.34-1.2-1.44-1.28-3.06-2.55-4.64-7.4-9.21-24.25-.98-31.28,5.19-2.28,2.01-4.13,4.64-6.54,6.52,3.16-9.32,14.16-15.4,22.82-18.52,3.39-1.22,7.05-1.68,10.36-2.8,6.62-2.24,10.37-8.64,17.28-10.24,2.32-.54-.73,1.65-1,1.96-3.19,3.55-4.1,5.06-8.91,6.52-.52.16-.64-.23-.54.75,7.39,1.1,15.08,2.95,22.49.86,4.98-1.4,14.46-7.66,15.01-13.3.35-3.67-.93-6.3-4.93-6.19-1.05.03-5.29,2.07-4.91.22.43-2.05,6.37-2.75,8.11-2.35,2.92.67,2.83,4.42,3.87,6.03.24.38.36.25.74.22,2.63-5.29,6.77-9.54,10.91-13.6.14-.14,2.08-1.12.92-1.28-1.96-.28-9.07,1.5-11.47,2.04-32.79,7.32-62.29,23.14-87.3,45.78-1.43,1.3-2.78,3.65-4.72,3.91-.13-.09-.22-.27-.36-.37-.44-.42-.91-1.39-.43-1.88,13.45-13.92,32.79-26.79,50-35.29,70.91-35.03,153.91-20.02,210.24,34.32,1.03.95,1.14,1.77.31,2.48Z" fill="#d1af71"/>
    <g>
      <path d="M230.88,31.02c4.65-.22,8.74.72,11.29,4.97,6.37,10.6,1.5,24.66-11.4,24.72-17.38.07-16.14-28.91.11-29.69Z" fill="#113039"/>
      <path d="M231.68,51.38c.21-.28.99,2.1,3.09.38,3.05-2.5,2.47-9.77-2.17-9.3-1.17.12-2.11,2.31-3.1.93,1.59-3.03,2.48-4.81,6.06-3.24,6.02,2.64,2.4,14-2.53,13.03-.71-.14-1.89-1.09-1.36-1.79Z" fill="#caaa70"/>
    </g>
  </g>
  <g>
    <path d="M212.76,328.27l116.6.37c.32,0,.52.13.72.38.88,1.09,2.02,7.72,1.27,9.31-.2.4-.98.71-1.47.81l-21.94.94c6.75-.06,13.48-.3,20.19-.7,1.23.06,1.49.62.67,1.56-1.83,1.66-3.54,3.27-5.46,4.84-1.44.41-1.86.57-2.55,1.86-6.21,4.87-11.34,8.37-18.19,12.28l-2.84.55c.58.29.43.72-.44,1.31-5.3,2.84-9.7,4.86-15.28,7.07l-3.63.75c-13.66.18-27.24.08-40.75-.28-2.94-1.71-5.31-1.61-7.1.29-14.19-.04-28.43-.02-42.71.04l-3.31-.42c-16.79-6.37-31.41-15.44-45.11-27.17l.11-.73-2.66-1.5c-.3-.27-.5-.53-.73-.74-1.78-1.56-3.3-3.27-4.56-5.14-.09-.83,1.89-5.47,3.1-5.28,25.36-.32,50.59-.31,76.03-.37Z" fill="#dabe86"/>
    <g>
      <path d="M302.62,359.91c-1.11.64-2.13,1.25-3.27,1.86,1.03-1.43-1.15-.42-1.64-.45-15.65-.8-32.2.71-48.03.07-.44-.02-1.35.28-1.27-.37,10.93-1.37,21.93-1.07,32.94-1.11,2.54,0,5.05,0,7.61,0,4.55.02,9.11-.05,13.66-.02Z" fill="#b3945f"/>
      <path d="M323.36,345.76c-.92.75-1.76,1.24-2.55,1.86.65-1.01.35-.7-.54-.74-8.38-.42-17.07.27-25.49.02-5.65-.17-11.4-.94-17.07-1.15-2.85-.1-6.42.37-9.12.02-.53-.07-1.13-.28-.54-.74l55.3.74Z" fill="#bd9f69"/>
      <path d="M276.79,351.72c.59.46,0,.67-.54.74-1.66.22-3.74-.1-5.48-.02-35.74,1.77-71.73.24-107.69.4l-1.99-.57,115.69-.56Z" fill="#a58754"/>
      <g>
        <path d="M329.18,328.27c1.17-1.09,6.18-1.04,7.64-.51l.73.88c.17,1.13.24,2.22.36,3.35-1.99,2.43-4.29,4.55-6.55,6.7-.32-.11-.31-.23,0-.37l-.59-.53c.41-1.29-.52-8.09-1.41-8.44l-116.15-.34-.45-.75c38.79-.09,77.62-.18,116.42,0Z" fill="#a88c5a"/>
        <path d="M284.07,368.84c-2.22.88-4.26,1.85-6.55,2.61-.38-.62-1.38-.37-2-.38-7.87-.1-15.8-.11-23.67,0-3.32.04-7.78-.26-10.89.03-1.72.16-4.14,1.18-5.47,1.14-1.6-.05-1.65-1.14-3.26-1.2-2.28-.08-5.13.07-7.63.02-9.69-.17-19.45.37-29.13.03-.77-.03-3.3-1.13-3.08.36-2-.64-3.87-1.49-5.82-2.23,3.9-.59,7.89-.38,11.84-.39,10.44-.02,21.11.09,31.65,0,.6,0,1.34.38,1.76.3,1.13-.22,1.83-2.59,4.7-1.69,1.77.56,3.52,1.55,5.88,1.43l41.67-.02Z" fill="#977a4a"/>
        <path d="M331.36,338.69c-.81.77-1.72,1.48-2.55,2.23.22-1.07-.59-.8-1.27-.76-10.22.63-20.66.64-30.94.74-2.21.02-4.63.53-7.01.12-.69-.12-.94.05-.79-.85l42.56-1.86v.37Z" fill="#b49561"/>
        <path d="M138.91,339.81l1.98.76,36.95.35-.19,1.12h-36.19c-.87-.75-1.69-1.46-2.55-2.24Z" fill="#bfa26b"/>
        <path d="M136.73,328.64c-.65,1.07-2.67,5.07-2.47,6.09.16.83,3.48,3.19,3.93,4.33-2.2-2.06-3.46-2.92-5.46-5.58-1.01-1.34-2.71-2.51-1.28-4.47.48-.65,4.18-.35,5.28-.36Z" fill="#aa8d5b"/>
      </g>
    </g>
  </g>
  <g>
    <path d="M198.21,306.31c3.58-1.02,7.54-.02,11.08.02,20.95.25,41.93-.22,62.88-.02,8.18,10.77,21.49,16.85,34.74,12.77,3.5-1.08,6.91-3.67,10.73-2.99,4.15.73,9.7,6.1,10.82,10.33-35.56,1.12-72.2-.05-107.88-.02-27.36.03-55.31,1.01-82.38.02.35-2.88,3.44-6.48,5.64-8.19,1.99-1.55,6.27-2.88,8.7-2.57,4.99.63,10.04,3.67,15.29,4.08,14.03,1.08,20.94-4.37,30.39-13.41Z" fill="#dabd84"/>
    <rect x="238.59" y="311.86" width="37.11" height="1.15" fill="#ba9c65"/>
  </g>
  <g>
    <path d="M264.79,163.4c.99.57,3.58,2.12,1.46,2.78-12.57,7.12-26.47,18.72-39.29,24.39,9.94-10.43,25.73-18.76,37.83-27.17Z" fill="#a36a4a"/>
    <path d="M181.47,206.95c-1.59-3.22-.61-5.54.73-8.56,1.43,1.84,2.2,3.95,3.63,5.77-1.45.93-2.92,1.84-4.36,2.79Z" fill="#796137"/>
    <path d="M272.79,184.99c-5.34,9.3-14.59,6.22-1.59.05.46-.21,1.25-.81,1.59-.05Z" fill="#4d291a"/>
    <path d="M254.6,210.29c-6.09,11.88-21.44,16.16-30.28,25.59-2.55-.1-5.04,2.32-6.85,4.35-2.98,3.07-9.8,4.11-11.26,8.02-2.79-1.99-1.64,1.01-2.91,2.04-.22.18-2.69,1.37-2.98,1.43-1.86-.14-3.03-.21-1.9,1.74-1.86,2.5-5.47,2.8-8.48,2.9-3.23,1.42-3.47,4.68-7.03,3.96-1.88.51-6.23,5.55-8.71,5.43,25.49-18.32,58.72-32.33,80.4-55.45Z" fill="#2a160d"/>
    <g>
      <path d="M353.92,106.46c.48-.42.9-.55.85.05,22-15.57,44.04-30.63,66.12-45.17.03-5.36-65.53,44.6-66.35,43.67-1.28,3.18-3.48-3.32-5.35-3.95,21.55-15.52,44.16-29.5,66.23-44.27,5.22-.15,8.94,6.46,11.11,10.56.54,1.15,2.37,2.34-.22,3.57-2.25,1.06-1.58-1.87-2.37-2.05-22.32,13.33-43.03,29.15-64.47,43.86-1.27.32-4.83-5.64-5.55-6.27Z" fill="#463225"/>
      <path d="M339.73,128.42c-3.2,7.77-15.64,12.95-22.83,18.69-12.55,9.83-25.51,19.03-38.89,27.58-2.94-2.07-3.84-5.62-6.68-7.94,19.9-16.26,42.43-30.6,62.94-46.15,2.47,2.63,3.62,4.81,5.46,7.82Z" fill="#6f402a"/>
      <path d="M204.39,163.77c-.59,2.05-3.1,3.26-4.36,4.65-2.13,1.66-3.33,6.5-5.6,7.39-8.34-9.71-76.65-45.24-57.08-54.93l63.1,45.57c1.21-1.58,2.53-2.47,3.94-2.68Z" fill="#6d3f29"/>
      <path d="M192.75,182.75c-.81,6.53-9.95-5.49-11.28,2.23,0,0-.75-.04-.75-.04-8.71-10.35-66.04-38.46-52.46-50.28,21.07,16.26,44.56,31.29,64.49,48.09Z" fill="#221109"/>
      <path d="M195.66,174.94c-.6,1.05-1.69,4.68-2.92,4.32l-31.27-21.81c8.52,8.84,22.05,16.49,31.63,23.98.02.36-.25.91-.35,1.32l-65.12-47.64c1.07-2.7,2.78-5.06,4.37-7.44,20.29,16.4,41.97,34.17,63.67,47.27Z" fill="#4f2c1b"/>
      <path d="M331,117.63c.89.98,4.95,3.27,2.57,4.29-20.88,14.73-40.9,30.74-62.23,44.84-1.31-1.77-3.41-2.48-4.21-4.48,21.33-14.32,42.38-31.94,63.87-44.64Z" fill="#b87b56"/>
      <path d="M53.78,72.59c2.64,1.05,3.03.33,6.39-.02,4.35.3,4.78,1.84,4.17,5.97,1.99-3.78,6.01.21,4.54-2.97-.69-.76-4.08-1.82-1.8-3.01,14.22,10.65,31.4,19.92,44.18,31.29-.07,2.08-2.7-1.19-3.14-1.44-1.58-.87-2.46-.14-1.38,1.41,1.68,1.45,2.83,2.58,4.63,3.73.74.5,1.04,1.97,2.8,1.5-.92.76-2.04,4.26-3.27,3.55-18.87-13.57-37.83-27.09-57.12-40.02Z" fill="#473226"/>
      <path d="M139.64,118.37c20.79,13.06,46.85,30.42,64.76,45.4-1.48.95-2.48,2.94-4,3.56,0,0-63.67-45.98-63.67-45.98.94-1.06,1.85-2.02,2.91-2.98Z" fill="#b87b56"/>
      <path d="M331,117.63l-63.67,45.4c-.78-.65-4.55-3.11-4.36-3.89,11.99-4.88,62.56-51.7,68.03-41.51Z" fill="#663b26"/>
      <path d="M204.76,163.77l-65.12-45.4c1.25-.81,3.69-3.92,5.07-3.55,0,0,63.88,45.23,63.88,45.23-.39,1.71-2.76,2.31-3.83,3.73Z" fill="#693c27"/>
      <path d="M353.55,106.09c-1.68-2.48,65.77-45.52,66.03-46.91.78.17,2.42,1.77,1.96,2.58-22.99,12.76-45.55,34.98-67.99,44.33Z" fill="#dec9b2"/>
      <path d="M122.17,106.46c.24.71-.08,1.51-.95,2.4l13.7,8.64c-.88,2.41-5.02,7.45-6.74,9.06-1.58-.6-12.13-8.17-13.64-10.23.92-1.99,5.02-8.92,7.63-9.87Z" fill="#4b3528"/>
      <path d="M336.45,118.74c3.81-3.91,9.5-6.98,14.19-10.05,11.23,10.11-.95,10-7.28,17.31-2.9,1.06-4.3-6.01-6.91-7.26Z" fill="#4d3629"/>
      <path d="M217.13,172.33c-1.09,1-6.01,6.51-6.45,6.64-2.19.22-8.19-3.39-9.56.65-8.64-1.12,2.1-10.8,4.73-13.61,3.93,1.8,7.34,4.8,11.28,6.33Z" fill="#4c3528"/>
      <path d="M181.47,184.99c-19.46-9.36-37.51-26.63-55.86-39.43-1.03-.78-.31-1.49-.17-2.25,18.48,13.22,38.03,27.57,56.03,41.68Z" fill="#3f2215"/>
      <path d="M216.77,184.24c-.04-2.05-3.36-2.41-2.86-4.94.51-.29,8.22-9.82,9.02-8.65,2.14,3.1,12.7,4.81,5.75,8.1-3.91-.67-9.27,4.44-11.91,5.49Z" fill="#443124"/>
      <polygon points="429.44 78.54 430.38 79.93 366.37 125.54 365.43 124.15 429.44 78.54" fill="#162d26"/>
      <path d="M350.64,108.69c-3.34-2.92-12.66,5.79-15.57,7.09,1.79,1.22,1.65,1.85,1.38,2.96-2.07-1.88-4.45-4.9-6.91-6.51,6.83-5.17,15.11-14.02,21.1-3.54Z" fill="#4c3629"/>
      <polygon points="41.09 78.92 104.79 124.63 103.72 126.2 40.01 80.49 41.09 78.92" fill="#172b23"/>
      <path d="M184.02,184.99c2.69,1.38,5.63,3.54,7.07,5.84l.57-.26c2,2.33,3.94,7.72,6,9.32.65.5,1.94.09,1.06,1.48-1.57-.92-4.82,1.7-5.6,1.32-4.42-4.48-7.92-11.43-9.1-17.7Z" fill="#473324"/>
      <path d="M136,117.25c-.3-.45-.24-.94.16-1.5-.12-.53-14.56-9-13.26-10.04,5.19-6.68,13.12,4.18,17.66,6.32.63.99-1.7,1.97-2.22,2.59-.74.88-.77,2.53-2.34,2.63Z" fill="#493327"/>
      <path d="M136,117.25c-.37.47-.78.74-1.09,1.12l-14.74-9.3c.13-.73,2.08-2.69,2.73-3.35.31,1.2,17.62,9.62,13.1,11.54Z" fill="#c5aa91"/>
      <path d="M217.49,171.96c-3.47-3.25-16.58-6.72-6.2-9.87,0,0,9.47,7.08,9.47,7.08-.88,1.19-2.21,1.84-3.27,2.79Z" fill="#4c3528"/>
      <path d="M210.94,200.61c-.12.18-3.6.76-4.17.77-1.34.02.09-1.03.19-1.71-.35-.65-.49-7.01.72-4.45.04.36-.23,6.21,1.09,4.66-.32-1.5-1.06-3.82-.2-5.6,6.49-5.11,1.83-6.16,2.38-13.17,2.56-1.34,3.02,5.41,2.93,7.06-1.33,6.79-7.18,4.55-2.94,12.45Z" fill="#4e3c2c"/>
      <path d="M396.49,62.91c-.05-.04-.36-1.11-.33-1.25,16.33-13.85,19.19-6.25.33,1.25Z" fill="#513b2d"/>
      <path d="M60.95,52.91c1.1-.28,11.46,7.64,13.2,8.7-1.63,2.13-7.39-3.23-9.42-4.12-1.08-1.1-6.86-3.23-3.77-4.58Z" fill="#594233"/>
      <path d="M206.94,164.89c1.85.41,14.87,7.84,8.49,7.54-1.22-1.11-12.33-5.52-8.49-7.54Z" fill="#c5aa90"/>
      <path d="M208.76,188.71c3.63,2.16-3.73,2.08-5.08,10.63-10.02,1.07,4.03-8.65,5.08-10.63Z" fill="#453224"/>
      <path d="M209.85,190.2c-2.38-.59-.42-6.66-3.18-7.36-.78-.26-3.73-.59-3.75-2.12-.03-2.47,5.53.53,6.12,3.43-.37,2.13,1.24,4.16.81,6.06Z" fill="#836951"/>
      <path d="M49.05,69.62c-4.44-1.84-1.08.78-1.08,1.67.01,2.2-3.55-.57-4.2-1.29-1.57-1.91.7-.93.91-3.73.88,1.74,3.63,1.5,4.37,3.35Z" fill="#473226"/>
      <path d="M206.58,190.2l.73.56c-2.13,2.35-5.03,4.62-6.19,7.63-2.63-2.37,4.29-6.71,5.46-8.19Z" fill="#967155"/>
      <path d="M191.66,190.57c-.42,2.08-3.17-2.51-4.18-2.98-1.06-.88-2.76-1.25-3.46-2.61,2.61.15,5.92,3.57,7.64,5.58Z" fill="#8b6c53"/>
      <path d="M213.13,199.87c.73-.57-2.58-6.08-.91-5.95.66.05,3.61,5.95.91,5.95Z" fill="#7a6049"/>
      <g>
        <path d="M345.55,144.79c-24.26,14.48-48.65,36.54-73.1,53.37-1.19,1.19.95.25,1.43.97-9.79,8.42,6.72-17.46,4.86-20.96,13.22-8.6,27.09-18.1,39.99-28.13,1.02-2.62,4.06-.82,3.3.19-17.34,13.91,7.56-5.76,13.47-9.87-3.37-2.54,5.43-5.74,7.13-7.1,1.17,2.32,4.49,9.3,2.91,11.54Z" fill="#22110a"/>
        <path d="M342.64,133.26c-15.85,16.33-41.28,34.06-63.49,49.87-1.06.33-.62-2.93.17-3.18,14.28-9.69,28.65-19.29,42.22-29.95l-.54-.73c-13.82,10.11-27.54,21.25-42.39,29.4-.08-1.95-1.27-3.59-2.18-5.21,14.23-4.38,26.82-18.67,40.05-26.95,7.42-6,17.91-10.29,23.25-18.08.98,1.6,2.06,3.15,2.91,4.84Z" fill="#4e2b1b"/>
        <path d="M345.55,144.79c-22.32,19.44-48.32,35.96-71.67,54.34-1.85.89-3.55.81-1.92-1.51,24.32-15.34,50.96-42.1,73.59-52.83Z" fill="#3e2114"/>
        <path d="M341.42,137.22c-.67.71-2.5,1.62-3.51,1.61l4.19-3.72c.51.5-.32,1.73-.67,2.1Z" fill="#4e2b1b"/>
      </g>
      <g>
        <path d="M114.17,109.07c-1.13,2.66-7.76-4.73-8.52-5.77-.76-3.81,3.74-.51,4.94.67.41.02,1.04-.29,1.34-.55,0,0,4.01,2.68,4.01,2.68l.84-1.28c-21.78-15.3-43.72-30.43-65.81-45.41l-.9,1.46,7.65,5.26c-.09,3.01,4.66,4.2,6.57,5.42,1.49-1.11,2.24,1.18,2.55,2.21,3.74,1.92,4.56,4.58-.6,3.7-2.28,3.45-2.48.45-2.6-2.09-.08-2.68-5.04-2.21-6.87-1.37-1.46-.96-6.18-1.99-4.68-4.42-1.72,1.59-3.09-.02-4.49-.93-7.68-.33,3.08-10.7,5.06-11.89,23.6,11.53,45.65,29.98,68.25,44.48-.29,2.77-5.02,5.35-6.75,7.83Z" fill="#483327"/>
        <path d="M52.32,71.48c-.77-.52-1.81-.59-2.91-1.49,2.52-.6,4.17-2.97,2.91,1.49Z" fill="#473226"/>
        <path d="M57.75,67.05l-8.74-6.01,1.79-2.72,67.09,46.14-1.79,2.72c-3.74-2.57-47.36-32.58-51.81-35.64-.71.39-6.86-3.63-6.53-4.49Z" fill="#dfcbb3"/>
        <path d="M64.29,71.54c.83,2.13-1.18-.3-1.29-.36-1.32-.99-6.31-1.94-5.24-4.13,0,0,6.53,4.49,6.53,4.49Z" fill="#473226"/>
        <path d="M55.96,70.36c.36.26.77,2.78-.69,1.83-.69-.45-.15-2.44.69-1.83Z" fill="#473226"/>
      </g>
      <path d="M350.64,108.69c.75,1.6-3.65,2.72-4.84,3.79-3.42,1.92-10.15,10.1-11.15,2.74,0,0,12.71-8.23,12.71-8.23.71-.84,3.12,1.34,3.29,1.7Z" fill="#c4a890"/>
    </g>
    <g>
      <path d="M264.79,163.4c-9.98,8.57-24.5,16.2-35.55,25.43,12.53-6.98,25.15-16.31,37.74-23.94,9.94,10.09,13.06,15.6-1.25,22.72-1.79.92-6.3,8.23-1.86,5.3,3.89-.2-.48,3.92-1.66,4.99,8.98-4.61-6.72,13.28-7.6,12.4-12.26,14.76-31.16,24.76-46.97,35.23-11.43,7.09-31.69,18.24-42.68,26.79-5.61.76-24.59,23.24-23.65,12.93-10.85,7.98-15.29,23.33-19.97,35.47-6.22,11.8-.19-13.53,1.11-16.34-8.68,19.29-5.57,40.32,4.1,55.16-14.03-1.32-12.13-18.87-23.16-24.5-14.48-7.05-18.48,20.03-31.41,19.66,16.22-24.1,16.01-57.08,33.9-80.87,4.37-7.78,42.53-51.61,48.88-41.57,0,0-13.67,11.35-13.67,11.35-17.09,11.67-27.2,59.73,5.49,32.79,28.14-22.53,97.24-44.62,105.87-79.29.11-11.66-10.99-1.54-15.47-.18-3.95,1.02-8.1,2.2-11.86,3.43-2.32,4.33-4.03.97-1.81-2.34.82-2.74.35-4.88,1.1-7.6-.02-.31-2.26-.79-1.78-2.55,7.51-3.95,37.14-32.85,42.15-24.46Z" fill="#4d291a"/>
      <path d="M272.79,184.99c-5.22,1.7-13.21,10.26-2.35,2.07l.89.16c-4.52,23.93-10.52,26.47-30.82,39.37-30.85,22.98-64.84,40.78-95.69,63.63-6.22,1.95-10.92,11.6-14.64,16.84,2.56-12.84,19.09-24.3,29.74-31.04,1.57-.28,7.24-2.05,4.58-3.61,10.68-7.54,21.22-14.8,33.12-19.06-1.75-3.14,3.82-2.06,5.23-3.64,20.65-16.1,46.77-28.03,61.56-51.52-3.98-.73-8.6,9.07-13.45,10.24l13.68-14.1.14-.78c-.63-.61-4.32,3.15-3.47-.75,1.32-6.06,10.37-8.88,14.38-13.02-.29,2.18-1.79,3.67-2.91,5.21Z" fill="#22110a"/>
      <path d="M172.74,266.86c-.97,2.17-6.51,3.68-7.63,5.4,2.67,1.18-.31,2.7-1.81,3.37-27.87,10.94-46.62,45.49-36.77,74.79,1.25,4.23,9.54,12.14,0,9.11-2.21-4.91-9.67-12.53-9.45-19.54-.41-8.39-.61-33.47,6.15-36.51-.33,4.51-4.17,13.8-4.3,19.07,6.01-8.04,9.66-30.87,22.7-38.56,1.38.86-.75,3.65,1.14,4.03,9.13-6.94,19.32-15.93,29.96-21.16Z" fill="#2a160d"/>
      <path d="M162.79,303.47c-6.02-3.67-17.18-5.83-5.7-12.41,7.4,32.27,69.7-.92,46.19-24.75,0-.21,2.07-3.38,2.25-3.48,21.12,22.06-21.09,58.36-42.74,40.64Z" fill="#3f2d20"/>
      <path d="M165.47,217.37c4.85.57,6.41,5.7,7.88,9.52,2.99,4.14,2.4,19.33-4.7,20.01-4.2,4.16-13.82,2.55-12.5-4.76.51-1.61,3.3-5.97,3.82-2.54.05-3.24,2.52-4.28,5.25-3.25-1.89-1.56-3.79.5-5.56,0-4.27.27-8.1,8.29-6.55,12.65-1.08.14-1.83-1.69-1.08-2.27-1.16-10.11,8.64-14.49,14.54-20.06.14-1.27.46-1.87.94-1.79,8.59,5.02-2.33-7.8-5.9-7.25-1.06.18-8.32-1.71-5.11-3,.45-.18,8.55,1.61,8.98,2.74Z" fill="#332418"/>
      <path d="M215.67,229.28c-21.48,15.46-57.63,36.08-84.23,51.03-13.67-6.68,3.79-29.05,10.73-35.59.87-.74,10.9-9.29,8.01-4.65-10.08,6.87-27.16,24.52-21.11,37.8,30.25-11.44,56.17-35.06,86.59-48.6Z" fill="#765944"/>
      <path d="M169.11,202.85c-1.07,5.94-15.61,5.94-18.19,7.82,3.18,4.71,10.51,3.53,15.64,6.32-.09,1.88-9.67-3.7-9.82-1.12,6.7.65,14.81,4.78,15.28,12.66-1.2-.03-1.18-1.48-2.27-1.96-1.18-.51-2.06.2-2.64-1.39l-.54,1.49c-.39-3.82-1.65-6.28-5.68-7.57-.95-.4-3.9-1.41-3.41-.61-5.42-1.23-16.16-6.3-7.64-11.91l.51.5c5.16-2.76,13.5-6.14,18.77-4.22Z" fill="#443123"/>
      <path d="M175.29,293.29c-4.19,1.11-12.73,4.85-5.82,8.56-8.02-1.09-14.35-18.05-1.99-14.88,5-3.05,4.7,3.48,7.81,6.32Z" fill="#9f8353"/>
      <path d="M170.56,221.09c2.11.1,3.33,3.92,2.91,5.96,2.4-5.89,4.03,17.32-3.28,21.21-5.47,6.97-20.86,3.72-14.55-6.33l.52.32c-1.51,4.97,6.09,9.27,9.31,6.01,1.51-1.14,3.12-2.43,4.92-2.2,6.24-5.77,3.77-18.44.17-24.97Z" fill="#443123"/>
      <path d="M143.64,190.57c1.01-1.2,1.84,1.23,3.27,1.49.42,1.72.79,3.7.73,5.58.19.21,1.96-.92,3.11.35,3.6,4.73-.31,5.98-3.86,8.39-2.31,1.09-4.14-3.63-3.18-5.32.2-.35,2.51-1.38,2.47-2.49-.93-1.33-.4-1.84-.44-3.64-.25-1.38-1.69-2.51-2.11-4.37Z" fill="#523b2b"/>
      <path d="M173.11,218.85c.61-2.39,10.21-6.83,11.83-7.48,1.26.02,1.02.82,1.37,1.03.91.54,2.12.55,2.79,1.79,0,.85-7.59,5.45-8.82,5.33-1.2-.94-5.77-.67-7.18-.68Z" fill="#4a291a"/>
      <path d="M183.57,293.36c.18.32.06.7.09,1.04-5.47,1.48-16.46-11.13-8.72-13.94,2.67-1.01.21,8.99,8.63,12.9Z" fill="#423022"/>
      <path d="M159.65,236.35c4.44-3.47,9.16.35,8.73,5.58-.92.18-.65-.17-.92-.72-1.98-7.42-8.26-5.16-6.73,2.21-1.94-.95-1.24-3.14-1.63-4.84-3.06,3.52-4.16,6.17,0,9.3,1.4,2.49,8.73-.62,6.46,1.03-9.09,3.61-13.52-7.03-5.92-12.57Z" fill="#83624a"/>
      <path d="M166.56,226.67c-4.15,6.32-13.61,8.78-14.15,17.72-.12.64.47,3.89-.77,2.75-4.83-14.33,29.45-21.33,5.82-28.66-.25-2.69,11.6,2.93,9.09,8.19Z" fill="#85654d"/>
      <path d="M248.41,204.71c-5.16,8.73-23.88,19.82-32.74,25.68.47-.8,1.32-1.24,0-1.12,10.98-6.79,24.25-18.32,32.74-24.56Z" fill="#5b4635"/>
      <path d="M169.11,202.85c-8.04-.23-17.2,3.03-21.83,7.63-1.43-4.95,25.34-13.14,21.83-7.63Z" fill="#b48c6a"/>
      <path d="M216.59,189.46c5.19,2.79,3.98,6.61-.36,9.3-.94-.22-2.16-5.71-.37-6.32l1.82,2.97c3.3-.92-3.58-5.41-1.09-5.95Z" fill="#574130"/>
      <path d="M170.2,248.26c-4.11,7.25-19.49,5.56-15.64-4.09-1.74,9.02,11.07,8.4,15.64,4.09Z" fill="#332418"/>
      <path d="M166.56,216.99c4.47,2.11,8.28,4.73,6.91,10.05-.18-4.51-4.48-7.66-8.01-9.68l1.09-.37Z" fill="#8d6d54"/>
      <path d="M137.09,193.55c-.03.98,6.03,4.04,6.08,4.82-.2.28-.16-.14.47-.35,1.3,4.24-2.16,1.89-3.65-.17-1.58-.12-7.65-5.42-2.9-4.3Z" fill="#523b2b"/>
      <path d="M196.39,204.34c.78-.72,9.5-4.59,6.08-1.41-1.37.62-9.5,6.35-6.08,1.41Z" fill="#8a674d"/>
      <path d="M137.09,193.55c9.77,5.16,8.19,7.73-.92.75l.92-.75Z" fill="#c49c77"/>
      <path d="M215.67,208.81c3.31-.97,5.7-.92,5.83,3.16-.04.78-5.04-2.31-5.83-1.67.98-1.18,3.32-.73,4.73-.56-.18-1.36-3.82-1.09-4.73-.93Z" fill="#4d3626"/>
      <path d="M213.85,231.51c-2.98,2.53-6.91,4.78-10.55,6.33,3.47-2.12,6.75-4.75,10.55-6.33Z" fill="#5b4635"/>
      <path d="M144.37,189.08c1.49.89,3.17,2.48,2.18,4.28-.46-1.26-5.2-3.91-2.18-4.28Z" fill="#9f7c5f"/>
      <path d="M178.56,302.22c-3.06.4-4.58.47-7.64,0h7.64Z" fill="#9f8353"/>
      <path d="M146.91,191.69l-2.55-2.61c1.11,0,2.18,1.62,2.55,2.61Z" fill="#523b2b"/>
      <g>
        <path d="M225.86,204.34c7.38-1.52,33.7-23.65,22.56.37-.46-.06-.38-.39-.36-.37.22.22-.35.95-.74.37-27.82,26.81-66.03,41.61-97.99,62.98-6.08,3.98-14.73-4.48-10.06-9.76,1.53-1.14,2.13-.64,1.82,1.49l2,3.07c4.38,4.81,11.46-2.02,5.95-6.61-9.19-9.2-17.33,11.12-3.35,13.45,2.02,1.83-12.39,9.16-14.24,7.57-.7,3.06-3.17,1.81-3.87-.87-2.35-13.41,11.48-30.51,22.61-35.96-2.76,32.36,40.82,11.58,24.39-19.11,5.02-3.59,3.95,6.57,17.08-6.2.21-.09.23-.8.91,0,1.67,4.5-3.43,7-7.34,7.37-1.44.6-3.45,2.74-4.4,2.97-5.92-.74-2.03.63.28,1.93-.31,1.72,3.3-1.94,3.63-1.87.6.29,1.59.7.92,1.47,1.11-.06,1.52.87,1.59,2.24.06-7.09,7.14-3.76,8.02,1.1.28-.15.71-.74.89-1.01,8.75.14,8.37-13.93-.38-6.84-.37,6.59-4.06-1.28-9.58,2.68-3.25-3.09,8.42-1.79,7.64-7.44,1.52-3.3,3.66.69,6.55.37-3.48-4.12-11.33-7.48-4-13.4.41.36.38.81-.09,1.35.92-.88,1.67-1.08,2.27-.6-.73,1.47-3.55,2.42-1.1,3.72-.03-2.32,2.84-3.73,4.73-4.47,2.39.44,5.7-1.39,8.37-1.49.56,4.74-8.53,9.12-12,5.96,1.01,6.18,10.31,11.5,6.1,19.25-.85,1.62-.57-.66.44.1-11.83,21.5-27.86-1.07-23.65,5.77,4.91,4.79,12.85,7.78,17.86,1.89,7.58-2.15,9.26-12.73,6.32-18.81,3.44-2.77,4.65-7.16,8.19-10.25,4.5-1.97,7.7-4.06,9.47-8.74-1.18,2.75-.37,5.61,1.45,1.65.33-.21,1.62.11,2.55-.16-2.11,2.75-5.79,4.56-7.28,7.66-.64.34-2.39-1.07-3.65-.79-4.75,1.48-12.7,15.53-5.09,17.32.17-1.32-1.74-1.47-1.85-2.41-.15-3.47,1.41-10.69,5.49-10.62l-1.09,1.49c1.56-.86,2.02-.39,3.79.08,4.7,2.77,7.97,3.89,10.99-1.96,1.38-1.91,4-.03,2.18.96-1.08,12.85-13.61.62-18.26,7.83-1.91,4.4,3.26-3.09,6.38-.95,0,0,1.18-.98,1.18-.98,5.4,2.02,13.27-.88,11.2-7.06l.72-.52c2.86,4.97.09-10.44-7.44,2.62-2.96,1.76-.92-1.22-.92-1.7-2.05-2.13-1.19-6.17,2.17-6.13Z" fill="#402d20"/>
        <g>
          <path d="M249.87,193.18c-.12,1.52-.86-.29-2.62.47-6.92,5.34-17.08,7.03-22.66,14.04.03-6.17,10.46-7.71,14.87-10.46,2.62-1.02,8.16-6.55,10.41-4.05Z" fill="#9c7559"/>
          <path d="M232.04,209.55c.7,1.42-1.27,8.84-2.18,6.33-.88-1.54,3.62-7.03-.73-5.39-2.95,5.64-6.66,5.38-11.63,2.22-1.06-.39-3,.41-1.83-1.29,3.52-.41,6.65,4.96,10.38,1.5,1.52-1.41,3.41-6.57,5.99-3.36Z" fill="#906d54"/>
          <path d="M200.39,212.53c4.06,4.1,8.51,11.17,3.63,16.19,4.39-8.74-5.25-13.75-3.63-16.19Z" fill="#6a513d"/>
          <path d="M191.66,214.76l.51,1.13c-12.76,8.67-11.97,6.08-.51-1.13Z" fill="#85664e"/>
          <path d="M215.67,208.81c.96-.62,5.89-.33,5.08,1.27-1.1-.34-9.15.34-9.08,4.68-1.95-2.14,2.24-5.33,4.01-5.95Z" fill="#8f6d53"/>
          <path d="M202.21,204.34c1.67-.21,7.55-3.5,8.37-1.49-.05,1.72-1.98.96-3.05,1.16-1.17-.05-6.35,2.34-5.32.33Z" fill="#916e52"/>
          <path d="M185.48,223.69c.97-.17.74.24.73,1.12.5.62-.05,1.11-.73.74-.5.37-3.36,2.35-3.62,2.44-4.18.94,2.66-3.57,3.62-4.3Z" fill="#816148"/>
          <path d="M193.84,217.37l1.45-.19c-1.81,1.83-2.4,5.31-5.45,5.4,1.41-1.63,2.9-3.12,4-5.21Z" fill="#7f614b"/>
          <path d="M247.32,204.71c-24.84,26.25-61.09,39.58-91.06,59.25-4.6,2.83-19.91,14.24-24.1,14.1-7.06-3.93-.86-14.63,2.56-19.38-.4,4.18-10.7,18-.08,17.78,1.06-.23,10.79-5.79,10.8-6.43-1.37-.86-2.46-.49-3.97-1.51-8.27-4.66-2.28-20.06,7.02-14.25.73.35,1.21,1.03.09,1.33-3.82-2.3-6.54.05-9.31,2.34-2.98,6.68,4.97,12.9,10.99,8.45,31.95-20.75,68.59-36.22,97.06-61.67Z" fill="#1a130d"/>
          <path d="M231.32,210.67c.53,6.78-5.73,8.86-11.28,7.07,2.3,3.28,2.14,2.39,5.45,1.49.09,1.09-1.25,1.64-2.09,1.78-3.29.54-2.23-1.56-4.46-2.9-2.39-.09-5.12-.61-6.04,2.59-.85-.28-.58,1.2-1.23,1.13-.29-13.16,15.51,1.35,18.35-8.95.42-1.16-.41-2.57,1.29-2.21Z" fill="#19120b"/>
          <path d="M149.1,255.33c5.94,2.89-.1,12.2-4.37,8.56,3.26-.89,6.69-2.03,4.73-6.7-1.9.06-3.59-2.05-5.76-.68,0,0-.79-.44-.79-.44-.26.81-1.17,2.86-1.82,3.35l-.37-1.86-1.09,1.68c-.94-4.92,5.95-6.6,9.46-3.91Z" fill="#725642"/>
          <path d="M142.91,256.07c.96-.2,1.54.02,1.13,1.08-4.29,5.28,6.27,7.68,4.57.5l.85-.46c5.74,10.06-15.05,7.6-6.55-1.12Z" fill="#150f0a"/>
          <path d="M218.95,218.11c-.26,1.92-5.69-1.88-5.82,4.09-1.89-3.19,2.78-6.45,5.82-4.09Z" fill="#725742"/>
          <path d="M212.32,226.23c-.06.11-1.44.94-1.93,1.55-.15.19-2.68,4.49-2.71,2.43-.01-.92,3.27-5.14,4.72-5.03-.02.34.11.73-.08,1.05Z" fill="#1a130d"/>
        </g>
      </g>
      <g>
        <path d="M195.66,229.65c-1.9-2.56-5.2-7.76-8.55-3.04-3.49.99-.41,4.43-.54,6.76-1.81.03-1.56-2.56-2.36-3.36-.62-.62-1.87.07-1.09-1.48,3.28-4.02,6.02-7.77,11.27-4.09.54-4.07,5.36-7.19,8.47-3.45,2.06,4.38-2.81,9.46-7.19,8.66Z" fill="#2a1f14"/>
        <path d="M195.66,229.65c.78,3.8-1.46-.5-1.74-1.75-4.77-5.9-8.87.61-2.99,4.18.36,1.31-2.14-.25-2.45-.47-7.29-7.07,5.39-11.24,7.18-1.95Z" fill="#8e6a50"/>
        <path d="M196.03,222.2c1.39-2.96,6.02-1.68,5.82,1.86-3.94-5.3-5.97,3.9-5.82-1.86Z" fill="#694d39"/>
        <path d="M197.12,223.69c-1.56,2.63.48,2.51,1.09,4.84-3.32,1.04-2.58-4.54-2.18-6.32-.1.87.15,1.53,1.09,1.49Z" fill="#402d20"/>
      </g>
      <path d="M149.46,257.19c2.14,8.62-11.51,6.29-5.82-.56l-.73-.56c2.35-1.28,4.84-.84,6.55,1.12Z" fill="#443123"/>
      <g>
        <path d="M69.06,358.79c3.98-.94,11.04-2.8,14.39-6.93.7-1.47,1.69-2.69,2.37-.49,4.01-14.42,15.27-21.91,24.09-5.74,2.08,7.71,10.52,20.66,17.71,17.63,4.7-1,4.43,3.24-.17,4.11-8.5.8-13.84-3.68-21.3-5.78-17.8-6.83-43.21,9.11-37.11-2.79Z" fill="#4a3426"/>
        <path d="M127.63,363.26l2.54.37c-14.94,4.51-17.05-13.74-23.66-22.13-15.85-17.82-23.35,25.14-21.63,9.11-2.73,5.68-10.1,6.58-15.29,8.92-1.12.79-.39-.24-.53-.73,1.47-2.15,4.94-1.78,7.38-2.69,11.42-3.7,13.48-27.26,28.03-18.46,10.16,7.64,6.41,24.07,23.16,25.62Z" fill="#7f624c"/>
        <g>
          <path d="M96.62,340.65c8.56-1.2,7.6,13.02-.43,11.79-5.79-1.02-3.02-9.91.43-11.79Z" fill="#2b1e14"/>
          <path d="M96.6,342.11c4.39-1.38,4.16,5.57,1,5.9-2.2.23-3.78-5.03-1-5.9Z" fill="#543d2d"/>
        </g>
      </g>
      <g>
        <path d="M304.8,201.36c-.22.66-1,.92-2.32.79,1.94-.54,18.74,5.1,10.9,5.17,1.57,1.39,9.1,4.47,9.97,3.35,2.11,10.46-14.46,7.16-18.92,13.03-6.61,7.04,17.72,11.34,13.83,23.44-.01.09.08-1.78.73-1.11.58,2.54-4.25,7.95-5.46,5.22.21-.22,2.07-.23,1.82-1.49-9.71,6.19-21.52-4.64-21.42-14.75-.38-.9-.02-6.43,1-3.87.12-1.63.62-2.62,1.5-2.97-1,8.08,2.33,21.66,12.68,19.36-8.26-.62-8.4-12.04.05-11.37-2.63-4.28-8.52,3.47-6.17,7.05,2.12,2.53,2.55,5.01-1.29,2.25-6.08-3.74-4.99-11.57-5.27-17.29-1.73-.79.93-2.72.97-1.56-.29-.1,2.67-4.03,3.69-4.41-2.17-2.06,4.5-4.1,5.77-4.75,2.14-.56-.06.82-.24-.43,2.58-1.13,5.52-2.18,8.09-.8.76-.08,5.34-1.84,4.28-2.92-2.14.53-4.75-1.65-6.67-3.04-3.4-1.88-7.64-2.83-9.7-6.26l2.18-.37c-4.99,1.18-4.64-4.95,0-2.24Z" fill="#3b2a1d"/>
        <path d="M288.07,289.19c-1.02,2.96-11.48,3.96-5.34,6.77,4.67,2.1,9.23-.07,12.62-3.42,1.01-.82,2.18-.45,3.53,1.12,3.05.83,9.69,4.07,4.84,7.2-13.7,5.99-36.41-5.78-38.94-20.6-1.06-4.88,2.45-5.41,4.82-1.88,3.26-.46,21.31,8.01,18.46,10.81Z" fill="#d7bb83"/>
        <path d="M275.7,220.34c2.15,3.44,26.57,15.09,11.28,15.67.02-8.73-13.81-7.84-8.66.63-.8,1.82,1.28,1.59,3.19,1.38,1.4,1.55,2.97-.3,3.87-1.59,2.4.27,1.03,4.99-.95,5.13-3.41,7.87-22.88-11.66-22.92-6.33-2.29-.6-7.83-3.92-2.2-3.53,2.82-2.32,4.57-5.67,8.2-7.27,2.6-2.58,4.47-5.76,8.2-4.08Z" fill="#3d2c1f"/>
        <path d="M290.62,277.28c2.28,3.98-7.92,1.39-9.04,1.99l.12.61c-.27-1.28,8.27-.6,8.67-.5,1.13,3.11-.02,7.33-2.3,9.8-2.68-4.79-13.39-9.47-18.68-10.11-1.91-2.85-5.25-3.23-4.61,1.18-1.42-18.66,18.83-13.57,25.83-2.98Z" fill="#9e8253"/>
        <path d="M287.7,306.31c-19.46-3.76-36.78-26.19-23.1-44.66,7.52,7.33-15.96,15.32,8.65,33.58,6.41,4.73,21.6,11.67,29.37,9.22,5.85,2.8-12.73,2.85-14.92,1.86Z" fill="#423022"/>
        <path d="M261.87,234.11c18.47,8.87,36.65,19.88,54.02,30.15,6.49,3.53,16.47,13.66,24.2,10.42.48-.74.91-1.11.73-2.24h.72c.16,7.91-7.97,5.66-12.19,2.61-22.33-13.68-44.91-27.16-67.85-39.82-3.43-1.91-4.11-3.79.36-1.12Z" fill="#725642"/>
        <path d="M295.34,292.54c6.18-8.33,3.32-4.04,12.73-4.84,2.53,7.65-.13,12.64-7.64,14.51,10.29-3.69-.52-7.56-5.09-9.68Z" fill="#a28655"/>
        <path d="M287.7,306.31c1.71-.75,18.93,1.22,14.92-1.86,5.2-1.59,8.85-8.89,10-13.39,2.16,1.96,6.57,4.42,7.31,7.42.43,1.75-2.18.95-3.27,1.16-9.01,3.37-18.15,11.76-28.95,6.67Z" fill="#2d2015"/>
        <path d="M278.25,237.46c-7.95-8.07,9.8-12.2,9.1-1.86l4.73-.74c-.1,2.89-3.26.9-4.21,3.13,1.4-.59,5.17-.78,4.57,1.34-5.72-1.94-10.06,8.94-6.18-2.61-.47-.14-.71-.38-.71-.74-.96,3.4-5.51,2.85-7.29,1.49Z" fill="#211810"/>
        <path d="M279.7,217.37c6.62,9.57,10.24,1.47,15.28,5.21-.03.5-1.59,2.4-1.99,3.36-.61,1.43-.72,5.17-2.13,4.78-3.42-4.88-11.41-9.93-15.79-13.59-.31-2.45,3.96-.81,4.64.24Z" fill="#3d2c1f"/>
        <path d="M284.43,294.4c4.82-2.46,8.79-8.29,10.54-13.23,9.7,1.61-4.88,15.75-10.54,13.23Z" fill="#423022"/>
        <path d="M296.35,218.93c1.16,2.07-3.04.36-4.08.28-4.34.51-10.08,2.08-7.84-4.23-4.14-8.88,9.02,2.5,11.92,3.95Z" fill="#4a2919"/>
        <path d="M326.27,191.31c-1.82,3.18-4.07,7.63-1.52,11.08.2,1.71-1.46,3.76,1.88,2.69.39.41-1.72,2.81-2.63,2.17-.81-.96-7.42-3.82-7.54-4.24-.27-.95,2.92-4.14,4.14-3.9.34.07,0,1.17.94.76-.21-1.49.33-2.73.73-4.09,1.41.27,1.56-5.74,4-4.47Z" fill="#4c3627"/>
        <path d="M292.07,232.62c-5.3,2-8.76-16.89-18.55-.37.16-6.91,9.13-6.19,4.54-9.3-.88-.64-4.49-1.49-2.36-2.61,2.39-.58,3.68,2.56,5.47,3.89,3.66,1,6.58,4.16,8.88,6.92.96.67,1.76-.06,2.02,1.47Z" fill="#684d39"/>
        <path d="M304.8,201.36c4.28,2.04,19.75,4.14,17.79,10.29-.99-5.2-30.01-10.11-17.79-10.29Z" fill="#c69872"/>
        <path d="M318.99,246.02l-.72,1.11c1.39-11.99-14.37-12.81-15.64-22.11.08-.61,1.58-3.4,1.82-1.34-4.78,7.3,16.27,10.09,14.55,22.33Z" fill="#7a5d47"/>
        <path d="M306.62,216.99l1.28.37c-7.05,2.49-11.58,8.95-12.93,16-3.64-6.25,5.42-14.56,11.65-16.37Z" fill="#8c6b51"/>
        <path d="M323.36,210.67c.1.69.08,1.95-.18,2.6-3.7-5.18-6.19-.61-12.91-7.44,1.42-.7,4.63,2.35,4.73.37,2.75,1.03,6.35,2.04,7.64,5.03l.37-1.31c.13.25.29.25.36.74Z" fill="#5b4231"/>
        <path d="M335.36,195.41c-2.81,2.63-6.3,4.92-8.55,8.18-.48-.09-1.57-4.63-.18-4.83,2.52-.15,5.88-4.91,8.73-3.35Z" fill="#4e3828"/>
        <path d="M279.7,217.37c9.66,9.88,11.31-.48,15.28,5.21-3.88-1.68-5.02.68-9.47.2-.83-.29-8.45-4.94-5.81-5.41Z" fill="#86664e"/>
        <path d="M290.62,283.61c-.13-.47.18-3.72,0-3.72-1.24-.43-10.66,1.08-10.55-1.11,2.87-1.1,10.21,2.08,10.55-1.49.66,2.31.43,4.08,0,6.33Z" fill="#6e5632"/>
        <path d="M291.71,235.97c2.41,4.36-2.64,1.27-4.73,3.35-.17-3.04,2.21-3.66,4.73-3.35Z" fill="#3d2c1f"/>
        <path d="M326.63,198.76c1.89-2.24,6.24-4.4,9.09-4.46-.13,2.07-4.06,1.67-5.46,3.16-1.29.53-3.9,4.11-3.63,1.31Z" fill="#ae8867"/>
        <path d="M326.27,190.57c.2,1.21-1.54,1.55-1.89,2.72-.28.53-1.78,5.94-2.1,5.47-.08-2.48.39-9.1,4-8.19Z" fill="#9a775a"/>
        <path d="M326.27,190.57c-1.16-.25-1.72.48-2.55,1.12.36-1.08,1.32-2.32,2.55-1.12Z" fill="#4c3627"/>
        <g>
          <path d="M254.6,235.6c21.06,11.58,42.56,24.58,63.91,36.41,8.34,6.55,25.51,17.35,24.77-1.52-2.34-13.09-17.54-27.2-26.67-36.01-.3-.73.92-2.55.2-3.71,28.5,17.2,48.44,41.79,59.04,74.14,4.8,16.57,8.75,36.25,18.45,50.16-12-2.46-14.98-28.69-30.2-18.05-9.82,8.1-6.39,20.03-22.19,22.52-2.39.48-2.62-.74-.9-2.33,19.15-16.83,9.55-53.91-7.79-68.68-8.57,2.59-24.76-17.79-35.21-21.71-8.69-6.38-44.43-23.78-43.41-31.21Z" fill="#4e2a1b"/>
          <path d="M366.28,290.68c-6.62-11.21-14.54-22.88-22.19-33.49,8.94,8.54,17.89,21.75,22.19,33.49Z" fill="#7c4e37"/>
        </g>
        <g>
          <path d="M254.6,235.6c-.26.47-.89.82-.57,1.48,17.77,14.26,39.91,25.25,58.53,38.41,6.49,4.17,14.58,15.26,21.34,12.39,16.37,13.73,25.7,49.91,10.57,67.28-.66,1.03-6.26,4.28-2.55,4.38-.88.14-3.51.97-4.21.01,25.05-41.53-14.4-75.02-48.79-93.36-6.52-5.66-47.77-22.19-34.31-30.58Z" fill="#29160d"/>
          <path d="M342.27,300.73c-.82.88-2.95-3.09-3.27-3.72.89-.72,3.74,3.21,3.27,3.72Z" fill="#4e2a1b"/>
        </g>
        <g>
          <path d="M292.43,239.32c.28,1.43,3.08,5.04,0,5.02.32.78,1.77.91,2.01,1.29,3.83,12.53,33.67,15.42,25.63-4.08,7.89,6.13,16.7,17.38,20.74,26.05,2.12,4.01,1.78,7.09-3.21,7.89-6.83.45-19.19-10.21-25-13.23-4.16-4.33-40.84-18.88-27.45-20.34.32-2.26,5.65-4.24,7.28-2.61Z" fill="#3e2c1e"/>
          <path d="M322.63,243.42c5.92,5.63,20.87,19.53,17.65,27.17-1.01-6.58-5.67-13.61-10.19-18.61-1.43-2.43-9.51-7-7.46-8.55Z" fill="#6c533f"/>
          <path d="M284.43,241.56c1.88.18-1.73,2.3-2.91,1.86,9.08,7,23.43,12.67,33.47,19.72-13.81-5.05-36.16-21.01-53.12-29.03-.38-1.39,1.6.05,1.83.18,5.99,2.89,14.37,11.54,20.73,7.27Z" fill="#120d05"/>
          <path d="M314.99,263.14c6.67,4.66,18.46,12.9,25.1,11.54-4.52,5.56-22.32-7.74-25.1-11.54Z" fill="#1b140d"/>
          <path d="M327.72,263.88c2.73-6.34-4.59-10.04-8.37-7.07-1.09-1.12,4.36-3.18,7.11-.76,1.54,1.28,4.62,7.34,1.25,7.84Z" fill="#795b45"/>
        </g>
        <path d="M296.44,228.16l.72-.37c-1.24,6.72-.16,14.72,6.38,18.23,1.69.51-.95-2.05-1.07-2.26-2.35-4.42,2-11.56,7.22-8.93-.21.35-.7,1.01-.98,1.3-12.46,1.31.42,18.43,4.82,6.16-5.47,17.2-21.66-3.24-17.1-14.14Z" fill="#19120b"/>
        <path d="M309.17,235.6c2.92,1.02,7.11,4.74,4.91,8.19-.42-1.66-.33-3.68-1.82-4.83-1.03,1.04.21,3.68-1.63,3.72.81-5.16-1.31-7.53-6.19-4.84.98-1.51,2.89-2.66,4.73-2.23Z" fill="#967155"/>
        <path d="M300.8,221.83c5.54-2.35-2.35,2.56-2.97,4.59-2.13,1.63,1.64-4.33,2.97-4.59Z" fill="#19120b"/>
        <path d="M286.25,236.72c-1.27.8-2.67,2.52-4.23,2.62-.66.04-.42-.68-.75-.75-.37.1-5.39-.5-3.03-1.12,1.79.94,2.67-.07,3.8-.01.25.01.01,1.43,1.5.41,3.91-3.44-1.49-7.57-5.3-5.23,2.11-5.32,9.1-.27,8,4.1Z" fill="#7d5d46"/>
        <g>
          <path d="M341.18,362.88c17.74,5.65,19.31-40.55,36.62-20.77,1.7,4.57,5.83,14.8,1.75,2.83-.22-.65-.07-1.07.56-1.42,6.33,15.28,21.21,13.12,16.68,20.6-1.49,2.55-2.28.39-4.21-.42-15.45-8.12-29.32-1.5-44.32,2.92-2.41-.09-16.28-1.52-7.08-3.74Z" fill="#483325"/>
          <path d="M380.11,343.53c-.21,2.17,5.22,12.81.29,6.96-2.86-10.54-10.48-18.64-18.48-6.4-4.39,8.55-7.53,18.64-18.46,19.81-6.3.43-.89-1.68,1.82-1.49,15.02-3.46,18.05-42.86,34.83-18.89Z" fill="#866750"/>
          <g>
            <path d="M370.19,341.39c6.41-1.05,7.17,10.92.62,11.1-5.64.15-6.33-10.16-.62-11.1Z" fill="#2c1f15"/>
            <g>
              <path d="M370.56,342.11c2.17-.33,3.42,2.88,2.09,4.77-3.63,3.76-7.57-3.75-2.09-4.77Z" fill="#584130"/>
              <path d="M370.88,343.56c1.86-.29.54,3.89-1.69,2.4-1.05-.71,1.32-2.34,1.69-2.4Z" fill="#b38f72"/>
            </g>
          </g>
        </g>
      </g>
    </g>
  </g>
  <g>
    <path d="M397.21,123.58c21.7,36.54,31.41,75.25,28.01,118.16-2.45,30.89-14.79,69.07-32.8,94.09-1.04,1.44-2.11,3.27-1.96-.13,22.6-33.58,32.53-71.2,33.69-111.81.05-1.76.18-4.32,0-5.99-.32-3-2.07,1.18-2.94,2.24-2.15,2.62-3.78,2.79-6.15,4.5-3.65,2.61-5.36,6.03-10.56,4.06-3.39-1.28-4.23-4.49-6.19-6.69-1.05-1.17-2.94-1.92-4.2-3.52-3.23-4.12-4.43-16.08-2.53-20.85s7.85-8.93,12.91-8.56c.12.09-.21.46-.36.56-1.84,1.23-5,2.36-6.89,3.74-4.63,3.39-5.89,10.06-4.38,15.42,1.11-1.43,1.45-3.09,2.46-4.74,1.39-2.26,4.15-5.23,6.83-5.66,12.74-2.04,19.38,11.99,14.35,22.68,3.39-1.01,6.16-4.72,6.55-8.37.92-8.67-1.52-16.62-9.68-20.24-4.3-1.91-9.58-.14-12.87,2.94-.8.58-.73.04-.36-.74,2.66-4.88,8.14-5.69,13.1-4.66l5.45,3.17c-2.7-7.64-7.3-14.41-13.27-19.73-2.9-2.58-9.94-7.97-13.86-5.6-1.85,1.12-1.1,2.55-.5,3.92.92,2.08-2.37,1.58-3.25-.03-1.32-2.4-.07-5.05,2.02-6.41,5.18-3.38,10.64,1.14,15.04,3.66.64.57,1.57,1.22,1.46,0-1.99-2.91-3.78-6.13-6.18-8.76-6.3-6.9-14.18-9.63-19.65-18.04-.99-1.77.35-3.92,1.82-1.86h.88c2.77,3.85,6.07,7.22,9.61,10.23-1.03-2.49-1.17-4.89-.97-7.54.16-2.17,1.39-6.55,3.01-2.8-.1,5.06.87,9.62,2.89,13.7,2.71,3.29,5.49,6.52,8.36,9.69,6.32,9.45,12.79,20.23,15.16,31.43.61-.26.71.74.69.68-.26-.83-.34-1.66-.33-2.54l-.63-.57c-2.6-11.73-5.79-23.72-10.1-35.17s-9-20.14-14.43-30.34c-.52-.98-.8-2.07-1.04-3.15-.18-1.2,1.13-1.16,1.82-.37Z" fill="#d2b072"/>
    <path d="M404.85,168.98c.81.47,1.78,1.16,1.46,0,.79,1.16,2.15,2.28,2.76,3.69.22.5.32,1.01-.39.78-.28-.09-3.12-3.95-3.82-4.47Z" fill="#6e664b"/>
    <path d="M400.48,221.46c-.96-.06-1.48-.94-.57-1.46-.63-1.07-.17-6.91.8-6.98.17-.01.35.07.53.17,1.31,7.99,13.58,9.49,12.42-.03-.85-6.95-7.59-4.25-10.98-.95-1.1.3-1.49-.14-1.11-1.18.53-1.03,1.59-2.72,1.92-3.44.23-.51,1.17-3.39.98-3.63-3.12,1.74-4.13,6.05-5.89,9.05l-1.56,5.09c-5.18-3.89-2.99-9.43.39-13.74,5.78-7.38,17.47-3.15,18.34,5.74.56,5.75-2.98,19.29-10.81,16.27-1.33-.51-3.94-3.63-4.47-4.92Z" fill="#112e38"/>
    <path d="M421.58,193.18c.22.95.84,1.95.99,3.27.09.78.16,1.54.1,2.32-1.18-.66-1.09-2.67-1.45-3.72l.36-1.86Z" fill="#726a4c"/>
    <g>
      <path d="M401.58,211.04l.55.75c3.04-3.3,10.45-6.31,12.02-.01,2.25,9.07-7.62,11.96-12.27,4.74l-1.38-3.24c-.68,2.48-1,5.76,0,8.18-1.06.63-2.12-.4-2.18-1.49,2.45.67,1.16.06,1.09-1.68-.17-4.02.63-4.26,2.18-7.26Z" fill="#caa96d"/>
      <path d="M403.13,212.62c.49-.55,6.4-2.08,7.27-1.89,3.05.67,1.88,6.08-.47,7.18-2.68,1.25-8.83-3.03-6.81-5.29Z" fill="#0f2e38"/>
    </g>
  </g>
  <g>
    <path d="M132.72,333.48c.8-.24,1.35.35,1.63,1.75l3.83,3.83c.84-.58,1.02-.23.73.74,1.46.56,2.31,1.3,2.55,2.23.92.32,1.85.66,2.63,1.25,13.18,9.96,25.83,18.95,41.34,24.95l1.15.97c2.51-.08,4.45.67,5.82,2.23l1.5-.05c26.53,7.84,54.19,8.59,80.71.29l2.92-.24c1.61-1.62,3.79-2.49,6.55-2.61l1.05-1.22c4.49-1.93,8.95-3.91,13.38-5.96l.85.1c.47-1.15,1.56-1.77,3.27-1.86l.94-1.4c5.44-3.15,10.64-6.68,15.62-10.55l1.63-.33c.18-1.11,1.03-1.73,2.55-1.86.85-2.16,3.23-4.34,5.46-4.84-.07-1.44,1.2-2.29,2.55-2.23,1.33-2.64,3.94-5.49,6.55-6.7.28,2.62.9,7.22.73,9.68-1.38,2.11-3.2,3.72-5.46,4.84l-.51,1.3c-32.64,28.62-75.67,43.26-118.73,36.5-28.11-4.41-56.79-18.35-78.28-37.46-.38-.34-.69-.75-1-1.18s-.58-.91-.84-1.38c-1.52.2-2.78-1.28-3.71-2.39.12.5-.17.7-.65.9-.53-.34-.47-1.52-.4-2.07.09-.69.68-.49.75-.79.43-1.9.35-5.55.74-7.93.63-.02,1.35.48,2.18,1.49Z" fill="#122f39"/>
    <path d="M123.27,385.21l.95-.06c3.43,3.33,7.54,6,11.63,8.54,53.95,33.61,114.08,40.12,172.61,13.72,11.98-5.4,21.48-11.51,32.3-18.8.67-.45,1.48-.63,2.25-.79.39-.32.53-.76.46-1.28,2.55-1.68,4.82-3.61,6.82-5.79,2.58.62,4.57,1.03,7.28,1.12l-.02,1.2c-2.64,3.01-5.67,5.34-9.07,6.99l-.07.81c-54.3,41.22-127.59,51.1-190.67,21.88-11.95-5.53-24.81-12.87-35.14-21.15-.9-.72-1.58-1.7-2.23-2.65-.28.02-.56.02-.83-.03-1.57-.28-7.02-5.49-7.54-7.41,2.32-.21,4.1-1.02,6.18-1.49l.71.42c1.5,1.62,2.96,3.22,4.38,4.79Z" fill="#112e38"/>
    <path d="M348.46,390.05c.38-.67,4.9-.7,5.12-.55.74.5.31.89-.39,1.29-67.23,52.35-152.19,55.84-223.56,9.31-3.15-2.05-10.35-6.66-12.54-9.31-2.02-1.89-.61-1.78,1.38-1.5.76-.53,1.39-.65,1.89-.36,65.03,50.97,150.55,52.82,218.98,7.6,1.72-1.14,7.87-6.24,9.13-6.48Z" fill="#deaf64"/>
    <path d="M201.85,303.71c-.16.22-.81,1.05-.73,1.11,20.47-.26,40.85.56,61.32.39l8.53-.76c9.23,6.35,22.13,10.14,33.03,6.8,7.94-2.43,10.62-8.45,19.8-5.58,8.83,2.75,11.15,10.86,13.02,19.25.1.42.1.79,0,1.12-2.64.02-5.24.17-7.79.46-.16.53-.35.47-.58-.08l-.84-.25c-2.14-4.96-7.67-10.65-13.41-9.15-14.82,7.8-32.22,3.89-42.26-10.05-24.19.29-49.15.09-72.85-.1l-.89-.55c1.07-1.02,2.25-2.06,3.64-2.61Z" fill="#a58958"/>
    <path d="M357.55,381.86c1.93.06,3.47-.1,5.37-.28.34-.03,1.14-.33.81.46-.43,1.05-8.15,7.22-9.64,8.39-.35.27-.8.27-.91.36.96-1.42-.71-.32-1.27-.36-1.13-.09-2.23-.62-3.46-.38,2.9-2.86,6.61-4.89,9.1-8.19Z" fill="#bc8d4b"/>
    <path d="M111.99,381.49c2.61,2.5,5.54,5.23,8.37,7.44-1.33,1.41-2.26,1.27-4,.75-.07.06.58.93.73,1.11l-10.91-8.75c-.15-.84.36-.51.9-.55,1.6-.12,3.34.14,4.92,0Z" fill="#bb8c4a"/>
    <path d="M337.55,328.64c-2.59-.53-5.66-.36-8.37-.37.06-.54-.68-1.55.23-1.81,1.69-.48,4.93.21,6.88-.04.38-.05.39-.02.53-.38.09-.25-.06-.79,0-1.12.27,1.23.54,2.48.73,3.72Z" fill="#6c542f"/>
    <path d="M119.99,380c1.14.93,2.13,2.05,3.27,2.98.01.76.01,1.5,0,2.23-1.32-.8-3.34-2.43-4.38-3.52-.51-.53-.81-.89-.71-1.69.52-.12,1.32.12,1.82,0Z" fill="#846c42"/>
    <path d="M129.45,342.79c-.05-.22-.31-2.61.54-2.23.47.21.69,1.04,1.04,1.35.89.8,1.87,1.56,2.78,2.36.26,1.76-.1,2.26-1.09,1.49-.44-.38-1.05-.73-1.46-1.12-.5-.48-1.65-1.14-1.82-1.86Z" fill="#9f8253"/>
    <path d="M338.64,341.67c-.14,2.01-1.37,3.06-2.55,4.47-.36.42-.73.73-1.09,1.12-.68-.14-1.29-.39-1.82-.74,1.67-1.61,3.46-3.75,5.46-4.84Z" fill="#7f673f"/>
    <g>
      <path d="M132.72,345.76c.92.34,1.86.7,2.64,1.31,17.1,13.43,31.79,23.82,52.38,31.22,50.12,18,106.62,4.86,145.65-30.44l1.6-.6c.17-1.1.53-1.47,1.09-1.12,1.62,2.86-1.16,5.74-2.37,8.18-2.36,4.75-4.18,13.06-.19,17.33,2.6,2.78,11.69,8.04,15.29,9.1.1.35.21.75.06,1.06-.68,1.39-5.62,4.55-7.33,5.26-.25.42-.51.84-.81,1.21s-.6.73-.96,1.01c-17.94,13.58-41.95,23.47-63.6,28.68-44.45,10.71-84.38,4.97-124.67-15.93-9.18-4.76-19-10.56-27.01-17.15-.27-.23-.48-.54-.69-.86s-.38-.69-.53-1.06c-1.46.22-3.24-1.49-3.27-2.98,6.3-1.57,12.35-5.95,15.64-11.73,3.66-6.44-1.16-12.07-3.82-17.67l-.54-5.96c1-.5,1.67-.03,1.46,1.12Z" fill="#122f39"/>
      <g>
        <path d="M350.28,380.75c.58.82.36.86-.23,1.43-2.23,2.18-4.68,3.8-7.04,5.64-.86.01-1.35-.23-1.46-.74.19-.14.47-.76.91-1.11,2.14-1.65,4.7-3.12,6.37-5.22.38.11,1.04-.1,1.46,0Z" fill="#a58856"/>
        <path d="M310.99,373.68c-5.1,2.03-9.08,6.24-10.02,11.89-1.19,7.15,4.59,11.67,11.12,8.77,3.88-1.72,5.28-5.49,7.63-8.75-1.21,12.69-17.76,17.17-21.28,3.35-4.51,6.5-9.37,11.32-16.42,14.84-11.46,5.72-18.62,8.12-31.62,7.88-.54,0-1.81-.46-1.94-.36-.09.07-.74,1.52-1.15,2.01-6.24,7.4-18.23,7.33-26.19,2.99-8.28-4.51-12.46-12.29-20.1-17.4-4.41-2.95-11.54-5.88-16.24-2.3-6.33,4.82-3.2,11.52,4.44,9.75.37-.08,3.05-2.31,2.44-.86-1.23,2.92-6.58,3.03-8.98,1.75-7.8-4.13-1.49-15.01,5.71-14.59-1.05-1.08-3.64-1.92-5.17-2.33-12.72-3.45-20.75,1.22-32.49.49-2.73-.17-11.81-2.76-12.9-5.41-.56-1.37,1.6.31,1.8.4,1.28.58,2.8,1.32,4.1,1.76,1.04.35,7.96,2.03,8.29,1.75.69-.58-.48-.79-.73-.91-2.94-1.47-4.39-2.1-6.54-4.87-3.88-5-4.53-10.77-1.82-16.55.68-.08.29.78.26,1.19-1.45,15.66,9.7,21.77,23.57,18.91.58-.12,1.21.12,1.63-.57-6.74-1.82-13.29-5.42-11.54-13.67.08-.36.13-1.12.63-1.02.47,13.96,16.05,13.61,25.85,16.17,6.82,1.79,15,5.8,20.53,10.26.69.56,2.04,2.36,2.56,2.59,1.3.57-.46-2.44-.62-2.72-.81-1.37-3.3-3.55-3.56-4.17-.57-1.35,2.11.38,2.37.55,3.39,2.26,4.4,6.17,6.43,9.43,1.73,2.79,4.13,5.67,6.66,7.7l-1.46-3.35c-1.06-2.89-.53-8.68,1.82-10.79.76-.69,2.21-1.22,1.71.25-.35,1.01-1.12,1.96-1.36,3.08-.83,3.77-.39,8.65,2.02,11.75,4.73,6.05,19.19,5.5,24.38.38,6.13-6.03,3.51-18.57-5.81-11.52-.87.66-.84,1.72-1.84,1.65-.54-2.63.93-4.41,3.14-5.53,8.29-4.22,12.94,4.61,9.6,11.86,4.93.25,9.69-5.5,10.19-10.23.28-2.65-.3-5.37-.19-8,2.92,3.84,3.14,9,.98,13.28l-3.7,4.96c6.5.22,17.37-2.96,21.45-8.38,4.12-5.46,1.1-11.44-5.45-11.72.9-1.5,3.83-.51,5.29-.01,5.96,2.06,5.99,6.99,2.72,11.74.03.37.57.19.84.11,4.67-1.42,11.94-9.58,14.51-13.81,4.47-7.35,3.07-11.96,12.57-15.42,6.35-2.31,7.89-1.36,13.91.28,2.21,1.1-.58,1.53-1.27.37-2,.45-5.16.32-7.28,0-.93.49-2.08.86-3.46,1.12Z" fill="#d0ae70"/>
        <path d="M341.55,387.07h1.82s-.36.74-.36.74c-22.84,17.77-55.72,31.27-84.27,34.94-42.21,5.43-76.64-2.69-113.65-22.83-5.67-3.08-17.73-10.08-21.82-14.71-.95-1.07-1.84-1.79,0-2.23,22.69,18.45,57.73,33.78,86.46,37.91,44.58,6.41,95.56-6.66,131.83-33.81Z" fill="#d3b173"/>
        <path d="M133.82,344.27c56.63,49.87,129.31,55.51,190.38,9.61,3.04-2.29,5.98-5.23,8.98-7.38.41-.3,1.34-.5,1.82-1.12v1.86c-14.38,15.27-42.13,29.15-62.05,34.58-52.41,14.3-100.18-.85-140.22-36.07,1.54-.56-.45-1.68,1.09-1.49Z" fill="#d3b477"/>
        <path d="M322.99,372.19c3.11.85,7.61,1.64,10.39,2.96.51.24,1.09.52,1.25,1.13-5.22-.8-11.74.3-16.13,3.42-.43.3-3.33,3.61-2.72,1.31.88-3.3,4.93-5.3,7.91-6.05,1.04-.26,3.2.32,2.93-.91-5.36-1.13-10.24-1.48-15.65-.37.73-.29,2.85-1.12,3.46-1.12h7.28c.27,0,1.04.65,1.64.37l-.36-.74Z" fill="#c5a76d"/>
        <path d="M235.32,404.57c3.2.9,1.08,6.56-1.63,6.65-3.3.11-6.5-3.98-6.4-7.2.03-.96,1.14-4.48,2.34-4.27,1.43.26.43,4.23.62,5.71.68,5.14,4.69,3.31,5.07-.9Z" fill="#ccac70"/>
      </g>
    </g>
    <path d="M277.52,371.44c-28.68,9.45-56.49,9.12-85.13,0-1.64-1.89,1.8-1.58,3.13-1.1,12.35.03,24.6.01,36.76-.06,2.54,1.31,5.25,1.35,8.15.11,12.26-.32,24.65-.27,37.17.14l-.08.9Z" fill="#dabe85"/>
  </g>
</svg>